<?xml version="1.0" encoding="utf-8"?>
<!-- Generator: Adobe Illustrator 25.3.1, SVG Export Plug-In . SVG Version: 6.00 Build 0)  -->
<svg version="1.1" id="Camada_1" xmlns="http://www.w3.org/2000/svg" xmlns:xlink="http://www.w3.org/1999/xlink" x="0px" y="0px"
	 viewBox="0 0 300 100" style="enable-background:new 0 0 300 100;" xml:space="preserve">
<style type="text/css">
	.st0{fill:#40A629;}
</style>
<g>
	<path class="st0" d="M273.19,46.53c-7.56-0.82-15.12-1.41-22.68-1.93c-7.56-0.51-15.12-0.95-22.68-1.3
		c-15.12-0.73-30.25-1.13-45.33-1.47l-5.64-0.13l-1.41-0.04l-0.7-0.02l-0.35-0.01l-0.49,0c-1.32-0.02-2.69,0.11-4.03,0.37
		c-2.71,0.52-5.32,1.7-7.43,3.21c-1.06,0.75-2.03,1.57-2.88,2.43c-0.86,0.85-1.64,1.74-2.32,2.64c-1.4,1.78-2.51,3.61-3.5,5.4
		c-0.98,1.8-1.85,3.56-2.65,5.29c-1.62,3.45-3.11,6.76-4.95,9.56c-0.91,1.4-1.95,2.62-3.11,3.58c-1.16,0.95-2.46,1.62-3.93,1.92
		c-1.46,0.32-3.09,0.25-4.72-0.11c-1.64-0.36-3.29-0.97-4.88-1.76c-0.4-0.2-0.79-0.41-1.19-0.62l-1.17-0.67l-0.15-0.08
		c-0.05-0.03-0.07-0.05-0.1-0.07l-0.2-0.14c-0.14-0.08-0.26-0.22-0.4-0.32c-0.27-0.24-0.53-0.51-0.78-0.81
		c-0.51-0.6-0.99-1.3-1.43-2.04c-0.43-0.75-0.83-1.54-1.2-2.36c-0.76-1.62-1.39-3.35-1.97-5.1c-0.59-1.75-1.09-3.54-1.58-5.34
		c-0.49-1.8-0.92-3.63-1.35-5.46c-0.41-1.84-0.83-3.68-1.21-5.53c-0.77-3.71-1.54-7.44-2.36-11.19c-0.83-3.75-1.75-7.51-2.9-11.3
		c-0.57-1.9-1.23-3.79-1.99-5.69c-0.76-1.91-1.67-3.81-2.79-5.72c-0.58-0.96-1.2-1.91-1.96-2.85c-0.75-0.94-1.58-1.88-2.63-2.77
		c-1.03-0.88-2.25-1.7-3.68-2.33c-1.43-0.63-3.08-1.01-4.69-1.06l-0.3-0.01c-0.11,0-0.19-0.01-0.33,0
		c-0.26,0.01-0.52,0.03-0.77,0.06c-0.53,0.04-1,0.15-1.48,0.26c-0.5,0.11-0.91,0.27-1.34,0.44c-0.45,0.16-0.8,0.35-1.18,0.55
		c-1.47,0.79-2.57,1.7-3.51,2.6c-1.83,1.8-3.15,3.6-4.32,5.37c-2.33,3.55-4.13,7.07-5.86,10.56c-1.72,3.49-3.31,6.96-4.88,10.39
		c-1.57,3.43-3.14,6.81-4.77,10.08c-1.63,3.27-3.35,6.43-5.18,9.26c-0.92,1.41-1.87,2.73-2.84,3.82l-0.36,0.4
		c-0.12,0.13-0.24,0.24-0.36,0.37c-0.24,0.26-0.47,0.45-0.7,0.67c-0.12,0.11-0.23,0.18-0.34,0.28c-0.11,0.09-0.22,0.19-0.32,0.25
		l-0.31,0.22c-0.09,0.05-0.19,0.1-0.28,0.16c-0.35,0.19-0.61,0.27-0.75,0.3c-0.14,0.01-0.19,0-0.33-0.03
		c-0.04-0.02-0.07,0-0.12-0.03c-0.05-0.03-0.1-0.05-0.16-0.06c-0.06-0.01-0.13-0.07-0.2-0.1c-0.04-0.02-0.07-0.03-0.11-0.04
		l-0.13-0.08c-0.09-0.05-0.17-0.1-0.26-0.15c-0.1-0.08-0.2-0.15-0.3-0.22l-0.15-0.1c-0.02-0.01-0.08-0.06-0.12-0.09l-0.13-0.1
		l-0.52-0.41c-2.81-2.2-5.5-4.57-8.21-7.08l-4.16-3.86c-1.44-1.32-2.93-2.67-4.72-4.06l-0.69-0.52c-0.22-0.17-0.5-0.35-0.74-0.52
		c-0.26-0.17-0.49-0.35-0.77-0.52l-0.85-0.52c-1.2-0.67-2.53-1.36-4.33-1.77c-0.22-0.05-0.41-0.11-0.66-0.15
		c-0.24-0.04-0.47-0.07-0.71-0.1c-0.47-0.06-0.94-0.12-1.45-0.1c-0.5,0.01-1,0-1.49,0.07c-0.49,0.07-0.99,0.15-1.47,0.25
		c-1.9,0.48-3.47,1.32-4.72,2.2c-0.17,0.11-0.31,0.22-0.45,0.33l-0.42,0.33c-0.27,0.22-0.57,0.45-0.81,0.68l-0.71,0.68
		c-0.23,0.23-0.48,0.46-0.68,0.68L12.37,44c-0.2,0.23-0.41,0.46-0.58,0.68c-0.36,0.45-0.72,0.9-1.07,1.34
		c-1.33,1.78-2.44,3.53-3.51,5.28c-1.8,2.95-0.87,6.8,2.08,8.6c2.9,1.77,6.68,0.9,8.51-1.94l0.07-0.11c0.94-1.46,1.9-2.88,2.87-4.11
		l0.72-0.86c0.12-0.15,0.24-0.26,0.35-0.39l0.35-0.37c0.12-0.14,0.22-0.22,0.33-0.32l0.32-0.3c0.1-0.1,0.19-0.14,0.28-0.22
		l0.13-0.11c0.04-0.04,0.09-0.08,0.12-0.09c0.31-0.2,0.44-0.21,0.38-0.21c-0.08,0.04-0.26,0.04-0.17,0.05
		c0.06-0.01,0.44,0.17,0.88,0.42l0.36,0.22c0.12,0.07,0.27,0.19,0.4,0.28c0.14,0.1,0.27,0.18,0.42,0.3l0.44,0.34
		c1.2,0.93,2.52,2.13,3.86,3.37c1.35,1.25,2.73,2.56,4.16,3.86c1.43,1.31,2.9,2.62,4.4,3.91c1.51,1.28,3.04,2.56,4.63,3.78
		l0.59,0.46l0.15,0.12c0.05,0.04,0.09,0.07,0.17,0.13l0.43,0.31l0.86,0.6c0.32,0.19,0.64,0.38,0.96,0.56
		c0.16,0.09,0.32,0.18,0.49,0.27l0.54,0.25c0.37,0.16,0.71,0.33,1.1,0.47c0.39,0.14,0.79,0.27,1.19,0.39
		c0.4,0.12,0.84,0.2,1.27,0.29c1.72,0.32,3.59,0.3,5.31-0.07c1.71-0.38,3.21-1.04,4.5-1.79l0.93-0.58c0.29-0.2,0.57-0.4,0.85-0.61
		c0.29-0.2,0.54-0.42,0.79-0.63c0.25-0.21,0.51-0.42,0.75-0.64c0.46-0.43,0.93-0.87,1.33-1.3c0.21-0.22,0.42-0.44,0.62-0.66
		l0.58-0.66c1.51-1.77,2.74-3.55,3.86-5.33c1.12-1.78,2.11-3.56,3.04-5.34c0.93-1.78,1.79-3.56,2.62-5.33
		c1.65-3.55,3.18-7.07,4.67-10.57l2.23-5.2c0.73-1.72,1.47-3.43,2.22-5.11c1.5-3.34,3.06-6.63,4.79-9.48
		c0.43-0.71,0.87-1.37,1.31-1.99c0.44-0.6,0.89-1.15,1.3-1.59c0.41-0.42,0.79-0.72,0.98-0.84c0.04-0.02,0.09-0.07,0.1-0.06
		c0.01,0,0.03-0.04,0-0.02c-0.02,0.01-0.04-0.02-0.09,0c-0.02,0-0.04,0-0.07-0.01c-0.02-0.01,0.01,0,0.03,0l0.05,0
		c0.28-0.02,0.51-0.01,0.83,0.1c0.32,0.11,0.7,0.32,1.14,0.63c0.44,0.3,0.91,0.74,1.37,1.25c0.47,0.49,0.93,1.11,1.39,1.72
		c0.92,1.27,1.77,2.73,2.6,4.26c0.82,1.53,1.58,3.15,2.33,4.8c1.48,3.31,2.82,6.78,4.12,10.29c2.59,7.04,4.95,14.26,7.45,21.51
		c1.28,3.62,2.59,7.25,4.31,10.84c0.43,0.9,0.92,1.78,1.44,2.67c0.53,0.88,1.12,1.76,1.83,2.6c0.35,0.42,0.75,0.83,1.19,1.23
		c0.23,0.19,0.44,0.39,0.7,0.57l0.38,0.27l0.19,0.13l0.16,0.1l1.27,0.77l1.3,0.74c1.76,0.95,3.62,1.81,5.64,2.43
		c2.01,0.64,4.22,1,6.51,0.87c1.15-0.06,2.3-0.29,3.42-0.62c1.12-0.33,2.2-0.79,3.2-1.35c1-0.56,1.94-1.19,2.82-1.87l0.65-0.52
		l0.62-0.54c0.41-0.36,0.81-0.72,1.19-1.1c3.05-3,5.39-6.26,7.69-9.27c2.27-3.02,4.45-5.89,6.64-8.03c1.11-1.05,2.18-1.92,3.22-2.49
		c1.03-0.6,1.99-0.9,3-1.07c0.52-0.06,1.04-0.13,1.61-0.1l0.22,0l0.36,0.01l0.72,0.02l1.43,0.04l5.71,0.14
		c7.6,0.16,15.17,0.22,22.75,0.21c3.79,0.01,7.58-0.05,11.36-0.07c3.79-0.06,7.58-0.1,11.36-0.2c7.57-0.16,15.15-0.43,22.72-0.78
		c7.58-0.36,15.15-0.8,22.73-1.48c1.55-0.14,2.69-1.51,2.55-3.05C275.57,47.72,274.5,46.67,273.19,46.53z"/>
	<path class="st0" d="M214.93,54.59c0,0-7.53,2.08-7.53,7.68c0,5.6,1.05,11.19-2.45,11.19c-3.5,0-1.05-11.19-1.75-13.99
		c-0.7-2.8-4.9-5.95-8.05-0.35s-8.75,4.9-10.15,1.4c-1.4-3.5-2.8-5.95-2.8-5.95L214.93,54.59z"/>
	<path class="st0" d="M134.99,79.76c0,0,0,4.55-3.5,4.2c-3.5-0.35-8.05-9.45-8.4-5.95c-0.35,3.5,1.05,18.54-1.75,18.54
		c-2.8,0-0.35-18.19-1.75-20.99c-1.4-2.8-6.3,1.05-5.95-8.4c0.35-9.45-2.1-11.19-4.9-13.29s2.45-11.89,2.45-11.89
		s7.7,27.29,15.74,32.53C134.99,79.76,134.99,79.76,134.99,79.76z"/>
	<path class="st0" d="M23.74,50.73c0,0-2.45,2.45-2.8,9.8c-0.35,7.35,1.75,16.44-1.05,17.14c-2.8,0.7-3.85-3.85-2.8-9.45
		c1.05-5.6-0.35-9.8-0.35-9.8S16.04,50.73,23.74,50.73z"/>
	<path class="st0" d="M291.01,58.08c0,0-5.95,10.84-6.3,18.19s0,18.89-2.8,19.59s-2.1-6.3-1.05-11.89
		c1.05-5.6-3.15-14.69-3.15-14.69S283.31,58.08,291.01,58.08z"/>
	<path class="st0" d="M263.37,18.54c0,0,31.83,22.04,30.44,33.58c-1.4,11.54-36.38,35.68-44.43,31.48
		c-8.05-4.2,12.94-34.28,26.24-34.63c0,0-31.13-15.39-28.69-24.49C249.38,15.4,256.38,12.95,263.37,18.54z"/>
</g>
<g>
</g>
<g>
</g>
<g>
</g>
<g>
</g>
<g>
</g>
<g>
</g>
</svg>
