<?xml version="1.0" encoding="utf-8"?>
<!-- Generator: Adobe Illustrator 25.3.1, SVG Export Plug-In . SVG Version: 6.00 Build 0)  -->
<svg version="1.1" id="Camada_1" xmlns="http://www.w3.org/2000/svg" xmlns:xlink="http://www.w3.org/1999/xlink" x="0px" y="0px"
	 viewBox="0 0 500 500" style="enable-background:new 0 0 500 500;" xml:space="preserve">
<style type="text/css">
	.st0{fill:#0C1125;}
	.st1{fill:#0F0E19;}
	.st2{fill:#090A1C;}
	.st3{fill:#0A0D1F;}
	.st4{fill:#131017;}
	.st5{fill:#080D1C;}
	.st6{fill:#181130;}
	.st7{fill:#090D1E;}
	.st8{fill:#20ABCC;}
	.st9{fill:#23ACCC;}
	.st10{fill:#23A5CA;}
	.st11{fill:#2269AE;}
	.st12{fill:#EC1385;}
	.st13{fill:#1D6EAC;}
	.st14{fill:#F2F7F7;}
	.st15{fill:#2261AA;}
	.st16{fill:#2C59A4;}
	.st17{fill:#248DBF;}
	.st18{fill:#47BAD1;}
	.st19{fill:#28447E;}
	.st20{fill:#1D6AAD;}
	.st21{fill:#EB1586;}
	.st22{fill:#244DA0;}
	.st23{fill:#EC49A2;}
	.st24{fill:#26A3C9;}
	.st25{fill:#2961AA;}
	.st26{fill:#24ACCC;}
	.st27{fill:#E71486;}
	.st28{fill:#CFEBEC;}
	.st29{fill:#288ABD;}
	.st30{fill:#213973;}
	.st31{fill:#8ABCD8;}
	.st32{fill:#853295;}
	.st33{fill:#63C4DB;}
	.st34{fill:#163568;}
	.st35{fill:#1E71B1;}
	.st36{fill:#183270;}
	.st37{fill:#1FA2C8;}
	.st38{fill:#DFEEEF;}
	.st39{fill:#2171B1;}
	.st40{fill:#2E6FB0;}
	.st41{fill:#204A9B;}
	.st42{fill:#243A87;}
	.st43{fill:#A13697;}
	.st44{fill:#CC3796;}
	.st45{fill:#173F6D;}
	.st46{fill:#297FB4;}
	.st47{fill:#E579BA;}
	.st48{fill:#8C5994;}
	.st49{fill:#7C419C;}
	.st50{fill:#D32F94;}
	.st51{fill:#64C5DB;}
	.st52{fill:#7E1066;}
	.st53{fill:#18347A;}
	.st54{fill:#DBB9DA;}
	.st55{fill:#15317E;}
	.st56{fill:#F00F80;}
	.st57{fill:#EF0F83;}
	.st58{fill:#30072D;}
	.st59{fill:#ED399A;}
	.st60{fill:#ED1385;}
	.st61{fill:#D53596;}
	.st62{fill:#E01184;}
	.st63{fill:#E4409D;}
	.st64{fill:#1F1568;}
	.st65{fill:#D8177A;}
	.st66{fill:#1959A5;}
	.st67{fill:#E90C81;}
	.st68{fill:#330C39;}
	.st69{fill:#243F99;}
	.st70{fill:#D3E8EA;}
	.st71{fill:#BD3095;}
	.st72{fill:#152A74;}
	.st73{fill:#781076;}
	.st74{fill:#B6DDE4;}
	.st75{fill:#871E77;}
	.st76{fill:#E669B2;}
	.st77{fill:#C477A0;}
	.st78{fill:#EB62AF;}
	.st79{fill:#C41E7C;}
	.st80{fill:#4DBCD4;}
	.st81{fill:#16144E;}
	.st82{fill:#3BB5D1;}
	.st83{fill:#B92584;}
	.st84{fill:#E11183;}
	.st85{fill:#DF76B8;}
	.st86{fill:#DF46A0;}
	.st87{fill:#D73497;}
	.st88{fill:#DD56A8;}
	.st89{fill:#E7BDDA;}
	.st90{fill:#21ABC9;}
	.st91{fill:#CBD7E1;}
	.st92{fill:#E29DCC;}
	.st93{fill:#97D8E0;}
	.st94{fill:#4C1C3F;}
	.st95{fill:#8D2061;}
	.st96{fill:#56C0D8;}
	.st97{fill:#3DB6D3;}
	.st98{fill:#F3DDEA;}
	.st99{fill:#31B1CF;}
	.st100{fill:#ABDFE3;}
	.st101{fill:#36B4D0;}
	.st102{fill:#340933;}
	.st103{fill:#DC2991;}
	.st104{fill:#BE3194;}
	.st105{fill:#F356A9;}
	.st106{fill:#70C8D9;}
	.st107{fill:#BDD8E5;}
	.st108{fill:#F1A3D0;}
	.st109{fill:#6DC7DD;}
	.st110{fill:#821172;}
	.st111{fill:#E2F0F0;}
	.st112{fill:#D7EDED;}
	.st113{fill:#74CADC;}
	.st114{fill:#D7E7E8;}
	.st115{fill:#0F193B;}
	.st116{fill:#69C6D8;}
	.st117{fill:#6CC8DD;}
	.st118{fill:#ADE0E4;}
	.st119{fill:#C6E8E8;}
	.st120{fill:#1B7AA1;}
	.st121{fill:#CA1682;}
	.st122{fill:#5E1166;}
	.st123{fill:#7072B4;}
	.st124{fill:#22A9CC;}
	.st125{fill:#DF1180;}
	.st126{fill:#E30F80;}
	.st127{fill:#8DD4DD;}
	.st128{fill:#43B8D3;}
	.st129{fill:#42B7D0;}
	.st130{fill:#D9177E;}
	.st131{fill:#72CADA;}
	.st132{fill:#F2E5ED;}
	.st133{fill:#F7F8F8;}
	.st134{fill:#D9ECED;}
	.st135{fill:#7CCDDB;}
	.st136{fill:#6DC8D9;}
	.st137{fill:#21A4C9;}
	.st138{fill:#B8E4E5;}
	.st139{fill:#98104C;}
	.st140{fill:#632183;}
	.st141{fill:#1AA7CB;}
	.st142{fill:#ADE0E2;}
	.st143{fill:#1A2D66;}
	.st144{fill:#2278B4;}
	.st145{fill:#9282BB;}
	.st146{fill:#15A6CA;}
	.st147{fill:#1759A5;}
	.st148{fill:#EA5EAD;}
	.st149{fill:#181868;}
	.st150{fill:#17A5C9;}
	.st151{fill:#1F76AD;}
	.st152{fill:#1CA8CB;}
	.st153{fill:#2284BA;}
	.st154{fill:#1E51A1;}
	.st155{fill:#1EAACA;}
	.st156{fill:#12668E;}
	.st157{fill:#116FA2;}
	.st158{fill:#E4AAD3;}
</style>
<path class="st0" d="M-25.72,573.91"/>
<path class="st0" d="M322.34,439.92"/>
<path class="st0" d="M431.05,432.29"/>
<path class="st0" d="M57.88,432.29c2.85-6.65,2.04-40.1,5.82-46.32c1.27,0.14,2.49,0.48,3.68,0.92c3.46,1.28,5.37-0.37,5.79-3.58
	c0.45-3.52,2.15-6.47,3.36-9.66c3.03-7.99,3-15.88-2.4-23.1c-2.95-3.94-2.26-7.94,1.88-10.91c2.37,2.81,4.1,6.1,6.6,8.82
	c10.48,14.66,20.12,29.77,25.86,47.03c1.94,4.29,3.63,8.69,5.62,12.96c0.92,1.97,2.27,3.65,4.57,2.82c2.61-0.94,1.11-3.1,0.58-4.62
	c-2.61-7.52-5.28-15.02-8.69-22.23c-2.59-4.19-3.87-8.96-5.69-13.46c-2.68-6.62-6.68-12.4-10.16-18.51
	c-0.21-0.79-0.15-1.56,0.25-2.29c0.84-0.98,2.08-0.2,3.25-0.79c-3.67-2.1-4.96-4.74-1.94-8.27c3.61-0.15,4.39,3.19,6.31,5.12
	c1.85,3.64,4.55,6.71,6.82,10.08c2.96,5.2,6.6,10.01,8.96,15.55c3.86,10.57,9.05,20.48,14.93,30.05c0.37,0.61,1.04,0.99,2.23,0.85
	c3.2-11.31-2.75-20.49-7.29-29.99c-1.23-2.03-2.29-4.14-3.43-6.22c-0.91-2.01-2.16-3.91-2.04-6.25c2.16-4.54,5-2.59,7.83-0.83
	c2.24,1.75,3.58,4.19,5.05,6.54c3.51,5.95,6.85,11.98,9.06,18.56c2.02,5.44,4.91,10.47,7.49,15.65c0.57,1.14,1.29,2.2,2.41,2.88
	c1.07,0.66,2.23,1.57,3.5,1.16c1.57-0.51,1.03-2.11,1.09-3.29c0.42-7.87-0.32-15.55-3.96-22.73c-1.18-4.28-3.64-8.19-3.67-12.79
	c0.24-2.94-1.22-5.54-1.69-8.33c-0.53-3.14-0.18-5.89,4.11-5.64c2.11,0.49,3.43,1.9,4.38,3.73c1.66,5.04,5.34,9.13,6.78,14.27
	c2.16,4.66,4.3,9.34,7.81,14.16c0.95-7.42,0.64-13.85-2.79-19.86c-2.65-5.25-2.96-11.36-5.99-16.47c-2.1-3.61-1.9-8.12-4.54-11.52
	c-0.86-1.06-1.6-2.2-2.01-3.52c-0.31-1.39-0.26-2.73,0.7-3.89c5.46-1,10.73-0.98,14.41,2.36c-2.23-1.03-4.38-3.36-6.04-6.53
	c-2.18-4.18-6.57-2.99-10.26-3.06c-2.32-0.04-4.71,0.8-6.86-0.76c-2.93-2.14-5.09-4.91-4.94-8.62c0.17-4.21,4.13-4.49,6.98-5.84
	c4.97,0.59,7.53,5.07,11.56,7.17c2.9,2.25,5.7,4.64,8.81,6.61c1.88,1.18,3.46,2.82,5.62,3.52c2.07-7.09,4.18-14.14,4.03-21.62
	c1.67-0.94,3.25-0.46,4.82,0.25c5.71,0.76,9.76,3.13,10.23,9.61c0.22,3.03,2.59,3.94,5.36,4.25c4.53,0.49,7.28,2.82,7.25,7.69
	c-3.72,6-7.03,12.09-3.83,19.46c0.58,1.72,1.38,3.34,2.15,4.98c4.76,8.9,8.59,18.3,14.31,26.68c1.01,1.48,2.17,2.97,1.29,4.96
	c-4.29,6.35-3.88,9.74,1.94,13.84c2.86,2.02,3.51,4.83,3.65,8.01c0.13,3.05-0.33,6.14,0.41,9.16c0.09,0.38,0.35,0.62,1.03,0.88
	c2.44-2.19,4.66-5.38,8.81-4.76c2.31,2.42-1.38,4.16-0.66,6.79c5.24-0.81,9.79-2.5,13.66-6.51c12.78-13.23,22.45-28.67,32.05-44.17
	c0.76-1.23,1.43-2.51,2.31-3.67c8.48-11.22,13.82-24.09,19.51-36.79c1.48-3.31-0.6-4.54-2.59-6.08c2.02-5.97,5.8-6.88,10.43-3.11
	c7.73,6.3,16.99,7.24,26.5,6.27c2.17-0.22,4.16-0.89,2.96-4.6c-1.03-3.18-1.31-7.13,0.49-10.58c0.51-0.31,1.04-0.34,1.58-0.1
	c2.89,3.67,3.35,8.2,4.4,12.51c0.19,1.52,0.14,3.05,0.18,4.59c0.04,1.4,0.67,1.79,1.95,1.31c3.49-0.85,6-4.78,10.23-3.22
	c0.91,0.6,1.87,1.22,2.5,2.08c2.64,3.57,5.39,5.84,9.86,2.39c1.18-0.91,3.18-0.43,4.81-0.45c7.78-0.12,15.54,0.15,23.31-1.26
	c6.55-1.19,10.47,2.79,10.98,9.91c-2.24,1.45-4.53,0.51-6.83,0.18c-10-1.44-19.81-4.25-29.99-4.36c-2.61,0.06-2.71,2.34-3.49,4.01
	c-0.36,0.97-0.73,1.93-1.13,2.89c-5.91,11.38-9.16,23.58-11.33,36.12c-1.87,4.12-2.12,8.52-2.14,13.11
	c4.7-4.03,7.15-9.42,9.45-14.92c2.82-7.83,6.07-15.46,10.57-22.49c0.39-0.61,0.76-1.24,1.23-1.78c1.72-2.02,3.31-5.34,6.2-4.32
	c3.09,1.1,1.78,4.59,1.62,7.2c-0.38,1.63-0.77,3.25-1.21,4.87c-3.65,8.35-6.69,16.91-8.62,25.84c-1.1,2.74-1.8,5.58-2.24,8.49
	c-2.35,4.1-1.6,8.82-2.58,13.2c-0.56,2.49-0.14,4.88,2.82,5.59c3.06,0.73,4.15-1.4,4.83-3.85c2.28-6.14,6.55-11.42,7.7-18.04
	c3.06-7.06,6.82-13.78,10.11-20.73c3.27-4.86,6.2-10.03,11.61-12.98c4.74-0.72,4.02,2.64,3.51,5.18c-1.03,5.19-3.47,9.87-6,14.48
	c-2.98,5.44-5.23,11.14-6.18,17.29c-0.24,1.55-0.66,3.66,1.22,4.29c1.6,0.54,2.33-1.38,3.09-2.53c3.8-5.7,8.32-10.94,10.69-17.56
	c1.6-4.48,6.81-6.59,7.92-11.48c0.71-1.94,1.38-3.9,2.5-5.66c2.67-3.92,6.47-6.93,8.97-10.99c4.31-5.79-2.11-4.8-4.16-6.58
	c-0.62-0.64-0.93-1.32-0.24-2.11c5.5-0.65,11.22-2.37,15.51,3.08c0.47,5.29-4.25,7.99-6.04,12.15
	c-7.36,13.62-15.02,27.11-19.52,42.05c-2.54,5.37-3.81,11.19-5.71,16.78c-0.48,1.4-1.36,3.34,1,4.02c1.86,0.54,2.91-0.69,3.78-2.25
	c1.14-2.05,0.53-5.67,4.52-5.3c1.73,8.65-0.1,10.57-13.17,13.06c5.69,0.37,10.54,0.76,15.1-1.72c2.13-1.16,4.52-1.41,6.88-1.24
	c5.72,0.42,10.71-0.82,14.73-5.29c1.28-1.42,2.96-2.69,5.01-3.11c2.04,0.75,1.55,4.23,4.52,4.07c3.03-0.17,9.22,0.36,3.98,0.12
	c1.97-2.43,3.72-6.53,2.66-8.87c-3.12-6.92-7.14-13.4-10.18-20.36c-1.08-2.48-2.54-2.89-4.77-1.84c-1.54-2.54-0.67-4.79,1.56-6
	c2.64-1.44,5.15,0.54,5.69,2.65c2.49,9.7,11.56,13.34,17.48,19.83c0.48,0.53,0.95,1.09,1.61,1.43c0.33,0.17,0.68,0.24,0.96,0.21
	c-1.7-0.96-2.45-2.21-1.11-4.09c3.58,3.45,5.05,8.21,7.48,12.36c2.27,3.87,4.66,21.3,9.46,20.92"/>
<path class="st0" d="M-13.9,406.51"/>
<path class="st0" d="M-39.16,406.56"/>
<path class="st0" d="M-29.67,519.37"/>
<path class="st0" d="M259.85,419.98"/>
<path class="st1" d="M475.89,393.66c0.33,1.02,0.65,2.04,0.98,3.06c0.21,0.65,0.75,1.39,0.03,1.94c-0.79,0.61-1.83,0.49-2.49-0.15
	c-1.41-1.37-2.57-3.03-4.02-4.34c-2.02-1.83-3.33-4.63-6.94-4.36c-1.53,0.12-2.46-1.91-3.14-3.41c-1.19-2.6-2.28-5.25-3.56-7.81
	c-0.94-1.87-1.83-4.51-4.21-4.26c-2.59,0.27-2.2,3.23-2.8,5.18c1.6,3.23-0.54,5.22-2.42,7.29c-1.17,0.79-2.66,1.31-2.57,3.14
	c0.19,3.72-0.96,6.63-4.47,8.54c-2.05,1.12-1.14,2.58,0.63,2.88c2.74,0.46,6,1.4,7.07-2.62c0.95-3.56,2.92-2.69,4.74-1.11
	c2.72,2.36,3.57,5.35,1.86,8.77c-0.21,0.15-0.42,0.3-0.63,0.45c-5.6,5.91-11.32,11.47-20.61,9.72c-2.51-0.47-4.82,0.32-7.16,1.72
	c-4.98,2.96-10.6,1.11-15.95,1.37c-0.99,0.05-1.69-0.63-1.67-1.71c0.02-1.26,0.86-2.12,1.96-2.26c1.96-0.24,3.99-0.43,5.94-0.2
	c4.76,0.56,7.22-1.18,7.22-6.17c0-1.58,0.58-3.17,0.9-4.75c0.01-0.25,0.02-0.51,0.03-0.76c1.75-5.51,5.64-10.15,6.45-16.04
	c1.15-3.13,2.61-6.16,3.17-9.49c4.88-10.73,10.59-20.93,18.29-29.95c1.75-2.05,3.53-4.13,4.62-6.63c-2.98-2.6-7.46-0.71-10.35-3.5
	c-4.58-4.42-10.53-2.34-15.83-3.31c-5.37,2.4-13.79,0.79-17.32-3.3c-0.71-1.47-2.91-1.78-3.05-3.63c-0.39-5.13-4.74-5.24-7.56-4.5
	c-8.42,2.22-16.87,1.17-25.3,1.39c-2.83,0.07-5.38,0-6.61,3.28c-0.48,1.29-2.54,3.01-2.97,0.9c-0.93-4.53-6.01-5.69-6.95-9.89
	c1.18-3.68,4.71-4.54,7.52-6.26c5.23-1.83,8.63-6.13,12.71-9.49c1.74-1.43,1.32-3.12,0.03-4.7c-1.02-1.25-2.26-2.27-3.5-3.3
	c-0.44-0.58,0.02,0.22-0.39-0.37c-4.48-6.45-4.44-6.41-10.22-1.09c-2.81,2.58-6.41,3.93-9.65,5.84c-1.62,0.58-3.04,1.57-4.61,2.24
	c-2.1,0.64-3.88,1.97-5.9,2.81c-0.78,0.14-1.48-0.01-2.06-0.57c-0.41,0-0.83-0.01-1.24-0.01c-1.17,1.63-1.84,4.43-4.63,3.15
	c-2.52-1.16-2.3-3.75-1.85-6.08c0.41-2.13,1.26-4.06,3.12-5.37c2.87-1.24,5.45-2.97,7.97-4.79c2.8-1.52,5.53-3.14,7.87-5.33
	c3.64-3.64,8.83-5.32,11.96-9.58c0.27-4.18-2.04-7.18-4.57-10.08c-1.79-1.82-2.95,0.03-4.3,0.74c-3.75,2.36-7.43,4.83-10.9,7.6
	c-2.27,1.23-4.52,2.52-7.01,3.3c-0.83,0.16-1.65,0.15-2.48-0.03c-5.26-2.47-5.57-3.17-3.69-8.36c1.01-1.3,2.39-2.16,3.71-3.09
	c5.06-2.98,10.13-5.95,14.66-9.71c1.68-1.4,4.08-2.6,3.1-5.56c-1.14-2.7-3.5-4.72-4.33-7.59c-0.6-0.14,0.14-2.18-0.96-1.01
	c-1.39,1.48-2.32,3.44-3.43,5.21c-0.76,1.05-1.63,2-2.63,2.83c-0.85,0.66-1.78,1.13-2.86,1.26c-1.36,0.1-2.58-0.36-3.77-0.95
	c-3.8-0.95-6.19-3.37-7.75-6.93c-1.23-2.81-2.63-5.55-4.26-8.16c-1.83-2.94-4.36-4.9-7.9-4.98c-2.75-0.06-6.48,0.38-6.6,3.27
	c-0.12,2.82-2.69,7.45,2.81,8.88c0.49,0.13,0.66,0.8,0.72,1.36c-3.3,3.51-5.66,8.39-11.65,7.99c-2.96-2.54-2.07-5.58-1.14-8.62
	c0.44-2.89,4.31-5.88-0.28-8.62c-1.15-1.21-2.3-2.43-1.6-4.32c2.75-3.53,7.11-2.61,10.69-3.85c2.99-0.93,6.16-1.31,8.98-2.79
	c4.97-5.22,6.46-5.32,11.51-0.56c1.48,1.39,3.22,2.33,4.93,3.35c1.13,0.74,2.11,1.64,2.96,2.69c1.46,1.88,1.32,3.87,0.37,5.9
	c-0.37,0.88-0.82,1.74-1.05,2.67c-0.02,0.71-0.08,1.62,0.86,1.59c1.54-0.05,1.76-1.56,2.36-2.61c9.71-12.2,21.68-21.74,34.94-29.77
	c2.26-1.2,4.51-2.42,6.05-4.54c-0.13-3.09-4.09-1.33-4.73-3.74c-3.03-6.72-8.72-11.09-13.98-15.83c-1.53-1.81-4.99-2.44-3.74-5.99
	c-1.86-3.19-4.02-1.18-6-0.29c-10.82,4.86-18.5,13.54-26.43,21.89c-1.43,1.5-2.38,3.78-5.1,3.35c-1.91-5.79-6.39-10.89-4.6-17.69
	c0.25-0.96-0.07-2.19-1.28-2.7c-0.34-0.14-0.76-0.06-1.02,0.21c-0.97,1.05-0.36,2.08,0.28,2.91c1.77,2.28,1.58,4.67,0.69,7.18
	c-0.91,2.58-0.52,4.97,1.13,7.17c2.69,3.58,1.39,5.95-2.29,7.66c-2.48,1.15-4.64,2.72-6.48,4.79c-3.78,4.25-8.38,4.94-12.88,1.54
	c-2.87-2.17-5.93-3.13-9.35-3.86c-3.39-0.72-7.52-1.2-7.27-6.35c0.67-2.39,2.77-3.25,4.66-4.28c4.94-2.72,9.23-6.41,14.06-9.29
	c13.2-10.87,20.7-25.39,26.23-41.14c3.84-10.93,7.36-21.94,13.53-31.94c7.21-11.68,15.58-22.09,27.57-29.44
	c-5.94,0.41-11.85,0.34-17.65,1.61c-8.36,1.9-15.97,6.14-24.42,7.74c-5.04-1.67-8.65-0.05-11.21,4.57c-0.91,1.65-2.09,3.5-4.61,2.8
	c-4.63-5.46-4.33-5.1,1.13-9.58c23.62-19.36,50.83-20.59,79.22-16.17c1.82,0.28,4.54,0.06,4.96,2.48c0.41,2.37-2.05,3.19-3.74,4.12
	c-6.2,3.41-12.05,7.38-18.06,11.1c-15.7,9.74-25.68,23.7-32.28,40.55c-2.98,7.6-6.02,15.18-9.49,22.56
	c-1.73,3.69,0.52,5.91,1.95,8.43c5.79,10.18,5.86,10.14,15.42,3.83c1.06-0.7,2.12-1.4,3.22-2.03c10.77-6.1,13.19-5.57,21.2,3.84
	c8,9.4,16.03,18.78,24.4,27.84c2.42,2.62,1.87,3.6-0.61,5.12c-11.92,7.33-23.32,15.34-33.8,24.69c-2.72,2.42-2.82,4.16-1.05,6.7
	c7.48,10.76,10.38,24.01,18.69,34.32c0.44,0.54,1.06,1.49,0.87,1.89c-3.68,7.38,3.17,11.32,5.5,16.66
	c1.58,3.62,4.03,6.87,6.13,10.27c1.97,3.21,2.35,6.02-1.62,8.06c-0.95,0.49-1.75,1.29-2.58,1.99c-1.11,0.93-2.67,1.84-2.39,3.4
	c0.33,1.9,2.32,1.25,3.64,1.55c26.18,6.03,52.52,11.29,79.13,15.08c7.99,1.14,8,1.32,6.14,9.14c-1.96,8.21-5.38,15.83-9.98,22.85
	c-2.56,3.9-2.76,7.3,0.23,10.89C470.23,379.25,472.23,386.89,475.89,393.66z"/>
<path class="st2" d="M117.2,287.85c-1.24-1.32-2.56-2.58-3.71-3.97c-2.78-3.35-5.8-4.61-10.4-3.26c-6.24,1.84-13.19,2.47-17.22-3.97
	c-3.95-6.32-1.63-12.91,2.91-18.04c3.79-4.28,2.62-7.01-0.25-11.13c-17.38-25-34.58-50.13-49.36-76.8
	c-3.51-6.33-7.75-12.16-12.41-18.52c-2.05,4.32-3.08,8.18-3.33,12.3c-0.95,15.22-0.69,30.44,0.06,45.65
	c0.38,1.19,1.02,2.69-0.3,3.38c-1.46,0.75-2.3-0.79-2.75-1.86c-1.19-2.83-1.92-5.78-1.91-8.91c0.02-5.59,0.25-11.19-0.05-16.77
	c-0.62-11.55-0.93-23.07,0.24-34.52c-3.39,8.03-4.01,16.5-4.41,24.96c-0.58,12.28,0.38,24.51,2.04,36.68
	c-0.61,5.21,2.27,9.72,2.96,14.68c0.55,3.95-0.22,4.7-4.01,3.59c-11.02-23.87-11.09-48.77-6.9-74.06c0.35-2.13,0.83-4.35,1.78-6.27
	c3.52-7.11,6.55-13.59,5.3-22.54c-1.26-9.03,11.51-18.48,22.37-19.22c8.77-0.6,15.82,4.92,18.27,15.29
	c2.47,10.44,9.53,18.26,14.62,27.16c15.96,27.85,32.74,55.21,50.12,82.2c1.66,2.58,2.52,2.84,4.75,0.99
	c3.24-2.68,6.96-4.57,11.08-5.6c7.24-1.81,13.08,2.65,13.33,10.17c0.19,5.82-2.43,10.58-6.06,14.73c-2.38,2.72-3.21,5.33-1.62,8.61
	c-2.62,0.73-3.14-1.35-3.55-2.99c-0.63-2.51-2.45-2.22-4.23-2.27c-0.37-0.35-0.64-0.77-0.79-1.26c-0.22-3.91,3.23-5.89,4.68-8.91
	c1.24-2.59,3.84-5.3,0.02-7.94c-3.64,1.5-6.51,4.18-9.79,6.22c-8.56,8.21-18.38,14.42-29.48,18.6c-1.68,0.63-3.23,1.61-4.36,3.07
	c-1.1,3.51,1.62,3.37,3.62,3.63c4.99,0.64,9.51-0.75,13.65-3.52c2.33-0.89,4.31-2.57,6.81-3.09c2.13,0.01,4.46,0.79,5.98-1.56
	c0.35-0.38,0.74-0.7,1.16-0.99c1.83-1.04,3.65-2.12,5.91-1.64c2.89,1.5,7.6,1.25,6.39,6.67c-0.83,1.04-1.87,0.66-2.89,0.42
	c-4.01-1.89-6.23,0.57-8.29,3.43c-8.26,3.3-8.18,3.28-6.06,13.03C121.73,286.54,121.81,289.6,117.2,287.85z"/>
<path class="st3" d="M308.98,103.62c1.67-0.81,2.67-2.19,3.59-3.77c3.58-6.17,5.16-6.77,12.01-4.86c0.04,1.76-1.46,2.3-2.51,3.21
	c-1.56,0.97-1.26,2.36-0.86,3.79c0.66,6.97,0.16,13.95,0.35,20.92c0.21,5.58-0.83,11-2.17,16.37
	c-6.18,15.92-12.81,31.52-27.51,41.89c-13.65,9.62-28.2,11.36-43.74,5.47c-7.51-4.61-15.62-8.42-21.02-15.85
	c-2.83-6.02-7.33-11.07-10.12-17.12c-4.15-10.02-8.38-19.93-9.3-31.02c-0.58-6.98-0.66-13.73,1.69-20.31c0.93-2.61,0.26-4.26-2-5.32
	c-4.4-2.06-8.59-4.74-13.65-4.98c-7.05-1.62-14.19-2.88-21.21-4.65c-2.11-0.53-4.17-1.15-7.03-0.09c2.47,2.5,5.24,4.15,7.6,6.18
	c14,11.98,21.95,27.73,28.44,44.5c3.99,10.3,7.2,20.98,13.51,30.26c0.72,1.06,1.16,2.28,0.7,3.61c-4.24,1.52-6.37-0.96-7.66-4.37
	c-2.12-5.58-5.34-10.2-10.46-13.39c-2.72-6.51-5.66-12.95-8.12-19.56c-7.02-18.83-20.59-32.19-36.19-43.89
	c-4.19-3.14-8.41-6.25-12.78-9.49c28.49-9.69,60.44-6.04,84.46,17.46c-12.01,11.03-5.98,24.44-5.53,37.66
	c2.98-0.9,3.79-3.04,5.04-4.64c6.8-8.74,14.27-16.57,25.62-19.16c2.92-0.67,3.52-2.92,4.12-5.17c1.25-4.66,3.61-8.6,6.61-12.37
	c2.49-3.13,4.07-2.52,6.32,0.08c3.35,3.89,6.18,8.04,8.19,12.77c0.77,1.81,1.37,3.75,3.68,4.37c13.73,3.71,22.82,13.51,31.4,23.9
	C313.56,125.73,312.89,110.78,308.98,103.62z"/>
<path class="st4" d="M197.64,154.09c3.83-1.35,5.41,2.33,7.27,4.05c1.72,1.58,3.86,4.58,3.96,6.64c0.22,4.63,3.5,5.63,6.29,7.5
	c1.94,0.43,2.67,1.95,3.28,3.6c0.3,1.07,0.35,2.15,0.05,3.22c-0.46,1.61-1.12,3.16-3.01,3.46c-1.67,0.26-2.72-0.84-3.46-2.14
	c-0.72-1.28-1.48-2.48-2.65-3.38c-3.54-3.47-4.67-0.51-5.85,2.21c-1.02,2.36-0.33,4.46,1.06,6.44c1.29,2.33,3.82,3.87,4.27,6.73
	c0.26,3.58-0.94,6.17-4.77,6.94c-2.51-0.08-3.63-2.15-5.15-3.64c-7.08-6.99-13.46-14.8-22.68-19.27c-2.19-1.06-4.59-2.57-4.81,1.78
	c-0.14,1.09-0.61,1.96-1.59,2.51c-3.51,0.72-5.9,2.78-7.98,5.72c-2.77,3.93-6.74,6.87-9.72,10.68c-1.38,2.53-4.86,4.68-1.43,8.05
	c13.11,5.31,21.48,16.19,30.74,26.04c2.08,2.34,3.3,5.44,6.25,6.99c0.47,0.01,0.93-0.02,1.38-0.12c1.85-0.87,3.45-1.78,0.48-3.32
	c-0.92-0.48-1.9-0.83-2.65-1.61c-0.33-0.41-0.57-0.86-0.7-1.37c-0.13-1.84,0.82-2.93,2.46-3.54c3.6,0.35,4.81-2.46,6.35-4.83
	c3.98-4.46,7.92-8.9,7.14-15.57c-0.1-0.86,0.68-1.64,1.54-2.08c0.85-0.17,1.63,0.04,2.4,0.38c6.27,3.31,6.83,4.57,5.63,12.58
	c-1.32,2.38-0.7,4.68,0.35,6.96c0.72,13.17-8.43,23.45-21.71,24.43c-3.04-0.08-5.65-1.02-7.41-3.68c-1.34-2.35-1.1-6.09-5.25-5.96
	c-1.67,1.47-2.23,3.62-3.3,5.43c-3.68,6.25-3.66,6.27,2.31,10.45c4.34,3.31,9.3,5.67,13.71,8.86c1.54,1.24,3.24,2.3,4.65,3.68
	c1.67,1.64,2.24,3.69,1.49,5.94c-0.85,2.58-2.88,2.93-5.23,2.52c-6.47-1.4-11.68-5.24-17.04-8.82c-6.71-5.11-5.42-6.84-10.85,2.09
	c-1.9,3.12-4.24,6.02-0.61,9.41c2.23,2.54,4.94,4.43,8.01,5.81c1.92,1.07,3.78,2.24,5.6,3.48c1.97,1.79,3.67,4.02,6.74,3.94
	c0.53,0.11,1.04,0.27,1.54,0.46c2.72,1.14,5.41,2.46,5.15,5.99c-0.17,2.28-1.8,3.36-4.08,3.38c-1.48-0.79-3.01-1.31-4.72-0.87
	c-3.31,1.33-5.18-1.43-7.53-2.73c-1.99-1.1-3.33-3.18-5.62-3.9c-4.14-2.11-7.47-5.32-11.07-8.15c-0.73-0.74-1.27-1.61-1.7-2.55
	c-1.92-5.93-6.51-8.29-12.23-9.15c-3.12-1.98-5.61-4.34-5.16-8.49c0.16-2.36-0.36-4.24-3.17-4.47c-1.53-0.12-2.65-0.82-3.34-2.19
	c-0.34-2.53,0.78-3.62,3.29-3.33c1.33-0.46,1.27-3.01,3.18-2.39c1.45,0.48,2.2,1.86,2.22,3.44c0.03,1.91,0.3,3.64,2.35,4.46
	c1.55,2.37,2.99,4.82,4.71,7.07c0.8,1.05,1.43,2.54,3.25,2.53c2.11-0.02,1.95-1.84,2.55-3.01c5.93-11.6,9.05-24.43,15.55-35.77
	c1.5-2.61-0.39-3.66-1.76-4.92c-7.48-6.86-15.24-13.31-23.97-18.64c-9.22-5.62-9.05-5.87-2.33-13.74c8-9.37,16.07-18.68,23.89-28.2
	c3.16-3.84,6.38-4.55,10.88-2.51c5.17,2.35,9.91,5.27,14.24,8.86c1.97,1.64,2.8,1.63,4.32-0.78
	C197.5,167.56,202.73,161.95,197.64,154.09z"/>
<path class="st5" d="M156.39,284.58c0.37,0.7,0.73,1.39,1.1,2.09c-0.18,0.47-0.46,0.88-0.82,1.23c-2.47,1.02-2.34,3.35-2.71,5.42
	c-0.31,1.04-0.67,2.13-1.35,2.93c-2.88,3.35-2.39,6.82-0.59,10.39c-0.51,0.51-0.93,1.22-1.54,1.49c-2.49,1.12-6.31,1.2-4.1,5.68
	c1.66,3.36,2.84,7.16,8.13,5.89c2.41-0.58,5.12-0.47,7.59-0.06c3,0.5,6.5,0.44,6.69,5.32c0.1,2.5,2.99,3.91,5.33,5.03
	c1.52,0.73,2.93,1.55,2.9,3.54c-0.01,0.73-0.06,1.6-0.95,1.7c-1.78,0.2-2.32-1.43-3.27-2.45c-2.37-2.54-5.35-3.94-8.76-3.37
	c-2.14,0.36-3.86-0.11-5.64-0.99c-0.1-0.2-0.2-0.4-0.3-0.6c-0.07-0.44-0.06-0.88-0.02-1.31c-0.63-3.01-2.22-0.27-3.3-0.53
	c-1.77,0.44-3.59,0.68-5.24,1.53c-14.18,3.39-28.62,5.5-42.76,9.1c-3.72,0.95-7.29,1.89-10.22,4.47c-0.08,2.54-2.25,5.77,2.35,6.74
	c1.56,0.33,2.81,1.55,2.06,3.09c-0.97,1.99-2.62,1.17-4.06,0.17c-0.57-0.4-1.27-0.62-1.9-0.93c-2.25,0.03-3.02-1.75-3.8-3.31
	c-2.27-4.5-5.44-7.02-10.79-5.59c-1.2,0.32-2.52,0.14-3.44-0.98c-3.56,2.27-4.59,5.8-2.22,8.88c5.6,7.29,7.25,18.93,2.79,26.42
	c-1.4,2.34-2.67,4.33-2.36,7.41c0.27,2.65-1.31,5.93-4.01,6.49c-2.69,0.56-5.79-0.57-7.46-3.5c1.2-4.74,3.52-9.04,5.98-13.14
	c2.04-3.39,1.52-5.79-0.47-8.88c-5.55-8.64-8.5-18.36-11.07-28.23c-0.83-3.19,0.26-4.06,3.19-4.63c17.27-3.36,34.88-4.68,52.07-8.56
	c5.1-1.15,10.24-2.13,15.37-3.19c2.74-1.3,4.78,0.44,6.96,1.74c1.5-1.52,0.81-3.98,2.49-5.26c1.54-1.35,0.9-2.45-0.46-3.35
	c-1.89-1.27-3.86-2.41-5.69-3.78c-2.5-1.43-2.86-4.23-4.12-6.45c-1.52-4.07-3.08-8.11-7.5-10.02c-1-1.52-2.83-2.42-3.27-4.36
	c3.71-0.08,3.82-2,2.26-4.6c-0.73-1.21-1.9-2.1-2.25-3.62c-1.45-6.42,0.21-8.74,6.81-9.22c1.1-0.08,2.16-0.15,2.93-1.09
	c2.96,0.46,2.29,2.78,2.04,4.52c-0.46,3.21,0.14,6.07,1.72,8.84c0.89,1.57,1.8,3.31,1.75,5.08c-0.19,6.26,2.43,11.12,7.13,14.87
	c-0.12-6.62,4.04-12.81,3.17-19.88c-0.14-1.16,0.82-2.37,2.13-2.9C149.01,280.72,154.18,279.06,156.39,284.58z"/>
<path class="st6" d="M19.03,147.26c0.77-2.62,1.94-2.29,2,0.05c0.09,3.4-0.3,6.87-1,10.21c-2.11,10.08,0.47,20.1,0.17,30.17
	c-0.22,7.38-1.04,14.89,1.06,22.19c0.28,0.99,0.8,1.92,1.5,3.56c0.35-1.62,0.54-2.48,0.72-3.34c1.55,6.11,2.01,12.46,4.56,18.35
	c2.77,6.38,7.06,11.3,12.96,14.89c1.24,0.75,2.45,1.55,3.67,2.33c3.81,2.46,7.02,5.43,6.57,10.42c-0.39,4.35-6.23,9.96-10.96,10.99
	c-7.83,1.7-15.44,1.47-20.97-5.15c-5.58-6.69-7.46-14.42-3.4-22.72c1.4-2.86-0.23-5.27-0.64-7.88c2.93,0.8,3.15-0.25,2.7-3
	c-0.81-4.94-3.87-9.35-3.27-14.57c2.69,0,2.89,2.38,3.61,4.03c1.64,3.78,2.81,7.74,4.29,11.59c0.34,2.14,1.15,4.18,1.48,6.34
	c0.19,1.26,0.68,3-0.36,3.61c-3.72,2.16-2.31,4.98-1.4,7.81c0.58,1.51,1.08,3.05,1.7,4.55c1.71,4.14,4.66,5.75,9.04,4.46
	c2.2-0.25,4.21,0.47,6.23,1.19c1.37,0.49,2.86,1,3.68-0.78c0.79-1.71,0.11-3.15-1.31-4.21c-2.29-1.7-5.21-2.33-7.36-4.3
	c-6-4.33-9.94-9.85-10.54-17.47c-0.13-1.61-1.41-2.9-2.2-4.33c-4.12-10.83-5.77-22.08-5.5-33.6c0.29-12.32-0.94-24.67,1.13-36.96
	C17.68,152.84,19.23,150.24,19.03,147.26z"/>
<path class="st7" d="M185.83,303.1c4.59-4.08,4.48-4.55-1.99-8.89c2.35-3.29,2.75-7.25,3.78-11c0.71-2.57,1.13-5.25,3.27-7.15
	c1.53-0.46,3.85,1.38,4.55-1.37c0.57-2.23,0.21-4.19-2.14-5.52c-1.52-0.86-2.75-2.23-4.1-3.37c1.15-1.6,4.14,0.64,4.55-1.87
	c0.53-3.24,2.09-6.16,2.53-9.37c0.19-1.42-1.28-1.5-2.11-2.1c-1.54-1.12-3.92-1.25-4.37-3.66c13.27-1.49,21.05-10.38,21.11-24.13
	c3.95-2.54,7.42,0.7,11.14,0.92c12.73,3.19,25.38,6.79,38.59,7.58c1.68,0.71,3.51,0.78,5.26,1.22c3.68,1.2,7.48,0.34,11.21,0.71
	c3.07,0.3,5.89,0.93,4.97,5.12c-0.96,2.19-4.43,2.14-4.53,5.09c6.19,7.18,13.7,7.78,20.63,1.81c1.91-1.65,3.11-4.68,6.5-3.96
	c-0.69,2.89-1.98,5.78,0.01,8.66c-0.57,5.31-5.08,6.89-8.92,8.1c-5.35,1.68-10.73,4.04-16.62,3.33c-1.83,0.18-3.58-0.43-6.17-0.65
	c7.23,5.28,14.23,6.91,22.01,3.3c2.47-1.15,4.92-2.34,7.44-3.38c1.54-0.64,3.21-1.14,4.54,0.34c1.28,1.42,0.8,3.08,0.18,4.63
	c-1.76,4.37-5.1,7.44-8.66,10.31c-1.84,1.48-3.82,2.78-5.58,4.36c-1.34,1.2-2.21,2.56-0.49,4.12c4.51,4.1,1.31,6.57-1.87,9.07
	c-5.01,0.94-6.98,3.92-6.18,8.93c0.2,1.23-0.01,2.54-0.47,3.75c-4.3,5.33-9.97,9.23-14.66,14.2c9.87-4.03,18.01-10.33,24.49-18.78
	c3.11-2.86,5.18-6.42,6.82-10.27c0.23-0.47,0.52-0.9,0.84-1.31c7.74-3.98,9.69-10.99,9.59-18.88c-0.14-9.88,6.09-18.71,4.63-28.78
	c-0.88-1.13-1.88-0.62-2.91-0.27c-1.14,0.39-2.86-0.05-2.77-0.85c0.41-3.52,1.31-6.89,0.52-10.61c-0.16-0.74,3.85-3.34,6.74-3.49
	c4.24-0.23,7.9,0.93,10.22,4.71c1.69,2.76,3.36,5.58,4.57,8.56c1.5,3.69,3.66,6.4,7.62,7.43c-1.5,2.44-3.89,2.69-6.17,1.89
	c-2.48-0.87-3.19,0.48-3.92,2.22c-1.46,1.37-1.12,2.1,0.82,2.3c2.48,2.85,3.17,6.74,5.62,9.6c0.61,1.23,0.6,2.51,0.37,3.82
	c-2.21,4,0.01,6.04,3.35,7.6c1.77,4.4,2.86,8.99,3.52,13.67c0.28,2.01,0.22,4-1.19,5.69c-2.04,0.73-2.31,2.63-2.88,4.33
	c-0.65,1.93-1.44,4.25,0.38,5.55c1.96,1.39,2.72-1.81,4.43-2.1c1.6,4.86-1.69,10.73,3.45,15.13c-4.24-1.53-6.52,2.67-10.5,2.49
	c-7.11-0.33-13.58-3.59-20.66-3.65c-1.23-0.01-1.66-1.22-2.29-2.1c-4.19-5.87-5.63-5.84-10.31,0.14c-0.1,0.8-0.51,1.43-1.09,1.96
	c-2.78,2.17-6.84,3.32-6.33,8.08c-0.55,3-2.62,5.14-4.39,7.37c-4.84,6.09-9.28,12.44-13.28,19.11
	c-6.25,11.59-14.51,21.83-21.91,32.65c-3.93,5.15-7.28,10.75-12.01,15.27c-1.52,1.59-3.32,2.95-4.15,5.11
	c-0.26,0.43-0.61,0.78-1.03,1.06c-3.3,1.33-6.78,2.39-7.89,6.46c-0.23,0.82-0.91,1.72-2.02,1.25c-1.25-0.53-2.07-1.63-2.12-2.95
	c-0.14-3.44-0.18-6.89-0.1-10.33c0.09-3.83-0.83-6.85-5.15-7.66c-3.4-0.64-3.86-3.8-3.35-5.87c0.74-3-1.2-7.83,4.3-8.53
	c0.22,0.12,0.45,0.24,0.68,0.36c2.78,3.1,5.16,6.49,7.36,10.04c1.49,2.4,3.13,3.43,5.8,0.47c6.66-7.35,7.12-9.95-0.28-19.07
	c-3.04-3.74-4.71-8.05-7.19-11.99c-5.07-8.05-10.1-16.1-16.3-23.36c-2.24-2.95-5-5.61-5.4-9.59c0.04-0.85,0.39-1.57,0.95-2.2
	c-1.07-4.59-3.4-7.44-8.67-6.65c-2.92,0.44-4.67-1.35-4.7-3.97C195.26,306.83,191.94,303.76,185.83,303.1z"/>
<path class="st8" d="M243.75,400.14c3.96-5.13,7.92-10.27,11.88-15.4c6.54-3.49,11.86-7.96,15.11-15.01
	c3.11-6.74,6.67-13.32,10.93-19.46c2.26-2.76,5.06-5.04,7.09-8.01c2.32-1.01,3.22-5.87,6.09-3.89c2.94,2.02-0.53,5.05-0.98,7.69
	c-0.9,5.34-4.26,9.37-6.51,13.99c-10.12,17.61-21.28,34.47-35.41,49.21c-4.05,4.22-9.56,4.87-14.81,6.06
	c-2.3,0.52-2.41-0.97-1.47-2.57c1.18-2,2.49-3.93,3.75-5.89c0,0-0.03,0.01-0.03,0.01C240.43,404.35,242.12,402.26,243.75,400.14z"/>
<path class="st9" d="M108.17,356.72c-2.63-3.14-5.16-6.34-6.86-10.11c0.68-2.38,2.88-2.54,4.71-3.1c15.93-4.87,32.31-7.9,48.43-12
	c1.46-0.37,2.87-0.21,4.18,0.57c1.6,0.23,1.08,2.03,2.04,2.74c2.27,7.37-1.04,11.93-8.96,12.34c-1.45-0.24-2.92-0.64-4.22,0.48
	c-3.86,8.98-12.82,7.17-19.86,9.1c-3.06,0.84-6.41,1.03-9.28,2.46C114.1,361.33,110.83,360.54,108.17,356.72z"/>
<path class="st10" d="M223.09,379.24c-6.35-8.8-10.23-19-15.98-28.14c-0.53-0.84-0.49-2.05-0.71-3.09c-0.64-1.35-0.4-2.81,1.01-3.03
	c4.11-0.64,3.86-3.12,3.11-6.13c-0.33-1.31-0.93-3.03,0.53-3.92c1.53-0.94,2.44,0.85,3.62,1.46c6.54,9.74,13.58,19.13,18.87,29.7
	c1.83,3.66,4.46,7.03,6.85,10.42c2.54,3.61,2.16,6.5-0.29,9.83c-5.78,7.86-5.73,7.93-11.56,0.3c-1.86-2.44-3.88-4.76-5.48-7.4
	L223.09,379.24z"/>
<path class="st11" d="M335.22,360.88c0.89-2.37,1.78-4.75,2.67-7.12c1.36-3.63,3.37-6.01,7.83-6.13c4.75-0.14,8.14-3.58,12.85-7.75
	c-2.97,8.06-5.17,14.68-7.84,21.11c-4.78,11.47-7.68,23.36-9.1,35.68c-0.54,4.67-1.44,9.31-2.29,13.94
	c-0.22,1.17-0.3,2.87-1.82,3.02c-1.63,0.17-1.55-1.7-2.21-2.68c-1.48-3.62-0.57-7.45-0.79-11.15c-0.53-8.77-1.05-17.54-1.63-26.31
	C332.6,369.22,333.35,364.88,335.22,360.88z"/>
<path class="st12" d="M459.51,341.61c-8.82,11.71-17.94,23.24-23.89,36.81c-1.46,3.27-3.15,6.45-3.93,9.99
	c-1.56,5.69-4.63,10.72-7,16.05c0,0-0.07,0.1-0.07,0.1c-2.23,1.72-2.18,4.45-2.73,6.8c-0.63,2.71-2.09,3.33-4.61,3.24
	c-3.23-0.11-5.37-0.64-3.8-4.65c2.4-6.14,3.19-12.86,6.65-18.62c3.88-7.1,5.97-15.01,9.89-22.09c3.4-6.12,6.46-12.41,9.63-18.65
	c3.87-5.09,7.61-10.39,14.97-10.36C456.33,340.25,458.33,339.56,459.51,341.61z"/>
<path class="st13" d="M189.1,350c2.93,0.21,3.96,2.21,4.35,4.72c1.17,7.5,5.2,13.04,10.57,18.39c7.9,7.87,11.65,18.69,17.47,28.07
	c0.44,0.71,0.52,1.76,0.47,2.64c-0.17,3.1-0.16,7.19-3.19,8.11c-2.74,0.83-3.73-3.21-4.97-5.4c-2.6-4.57-4.83-9.34-7.22-14.03
	c-1.97-6.93-5.52-13.05-9.9-19.8c-0.72,4.44-0.7,8,0.02,11.51c0.85,4.16,0.46,8.29-0.05,12.4c-0.29,2.36-0.92,4.71-4.16,4.48
	c-3.05-10.44-6.11-20.87-9.16-31.31c0,0,1.66-0.66,1.66-0.66c-0.19-2.36,0.75-3.43,3.18-2.75c4.6,1.27,4.25-1.69,3.85-4.56
	C191.44,357.79,188.54,354.32,189.1,350z"/>
<path class="st14" d="M158.63,332.08c-19.02,5.16-38.48,8.6-57.32,14.53c-1.59-1.85-3.18-3.69-4.77-5.54
	c-1.43-4.24,2.06-4.41,4.43-4.91c12.8-2.73,25.66-5.24,38.49-7.85c3.47-0.71,7.08-0.79,10.38-2.3c3.1-0.23,6.79-2.59,8.5,2.31
	c0,0,0.03,0.09,0.03,0.09C158.47,329.63,158.55,330.86,158.63,332.08z"/>
<path class="st15" d="M410.22,350.85c-3.86,3.78-7.48,7.76-10.39,12.34c-0.45,0.3-0.83,0.67-1.11,1.14
	c-4.2,7.09-9.59,7.64-15.52,1.6c-1.72-1.75-2.35-3.81-0.73-5.8c1.95-2.38,1.99-5.31,2.89-7.99c0.12-1.52-0.49-3.17,0.85-4.45
	c1.89-2.64,0.09-5.71,0.97-8.46c3.43-2.4,6.68,0.1,9.74,0.83c5.41,1.3,11.61,1.51,15.14,7.06
	C412.44,348.85,411.32,349.84,410.22,350.85z"/>
<path class="st16" d="M387.67,339.31c-0.73,2.75,1.24,5.97-1.46,8.38c0-2.16,0-4.31,0-7.44c-9.43,8.26-12.38,19.38-17.14,29.42
	c-2.54,0.83-4.08,2.71-5.43,4.9c-0.89,1.45-1.66,3.66-3.89,2.91c-2.04-0.68-0.86-2.79-1.06-4.27c-0.12-0.86-0.16-1.79,0.48-2.55
	c0.91-4.36,1.97-8.7,2.7-13.09c1.41-8.45,5.15-15.95,9.14-23.37c4.59,0.49,9.08,1.59,13.63,2.35
	C386.12,336.81,388.05,336.88,387.67,339.31z"/>
<path class="st17" d="M108.17,356.72c3.01,2.47,5.86,2.51,9.67,1.02c6.65-2.61,13.76-4.03,20.96-4.43c2.5-0.14,4.06-1,5.04-3.27
	c0.8-1.84,1.9-3.5,3.81-4.44c1.95,1.66,2.5,3.95,2.25,6.28c-0.38,3.51,0.42,6.7,1.86,9.82c0.24,1.27,0.3,2.53-0.73,3.51
	c-3.25,3.11-12.43,3.76-16.51,1.19c-1.39-1.89-2.78-3.78-4.18-5.67c-1.34-1.8-2.94-2.93-5.37-2.57c-2.07,0.31-2.21,1.36-1.43,2.95
	c0.97,1.63,2.16,3.17,2.32,5.16c0.49,0.58,0.4,1.38,0.74,1.99c1.61,2.86,1.02,5.34-1.62,7.04c-2.9,1.86-5.11,0.52-6.74-2.14
	c-0.33-0.47-0.69-0.91-1.09-1.32C114.17,366.8,111.17,361.76,108.17,356.72z"/>
<path class="st18" d="M95.56,351.94c6.76,7.66,10.05,17.16,14.01,26.32c0.76,1.75,1.51,3.51,2.26,5.26
	c0.24,5.66-1.73,10.78-4.75,12.42c-5.72-17.33-15.93-32.21-25.79-47.29C86.51,347.69,90.98,350.07,95.56,351.94z"/>
<path class="st19" d="M410.22,350.85c0.47-1,0.94-2,1.4-3c0.44-1.2,0.93-2.36,2.36-2.69c0.53-0.01,1.01,0.12,1.46,0.4
	c0.86,0.72,1.23,1.65,1.19,2.76c-0.91,3.13-1.81,6.27-1.2,9.59c0.86,4.68,2.88,5.54,6.64,2.81c1.05-0.77,2.07-1.49,3.46-0.96
	c-0.21,0.86-0.16,1.95-0.68,2.55c-7.96,9.22-12.13,20.92-19.87,30.28c-0.83,1-1.44,2.3-2.99,1.53c-1.82-0.9-2.45-2.57-2.39-4.54
	c0.25-7.45,3.06-14.09,6.53-20.5c2.59-4.79,5.12-9.61,6.12-15.01C412.53,352.74,413.88,349.99,410.22,350.85z"/>
<path class="st20" d="M326.46,385.96c-2.22,7.04-4.35,14.05-7.99,20.6c-2.91,5.24-7.18,6.66-12.53,6.75
	c-3.23,0.06-3.92-1.26-2.31-3.96c3.14-5.26,6.03-10.69,9.49-15.72c4.32-6.27,7.16-13.32,11.11-19.77c1-1.09,1.02-3.74,3.08-3.05
	c1.98,0.66,1.76,2.87,1.4,4.71C328.02,379.01,327.61,382.56,326.46,385.96z"/>
<path class="st21" d="M415.25,346.05c-0.52-0.05-1.03-0.1-1.55-0.15c-7.63-3.84-16.14-4.9-24.09-7.71c-3.96-1.4-7.99-2.2-12.19-2.43
	c-2.39-0.13-5.4,0.18-5.42-3.67c0.16-2.22,0.1-4.54,2.59-5.71c10.31,6.16,22.24,6.11,33.5,8.44c5.65,1.17,11.25,2.83,17.03,3.39
	c2.72,0.27,5.5,0.82,7.29-2.11c0.53,0,1.07-0.07,1.58,0.03c7.05,1.33,7.24,1.86,2.75,7.58C430.45,352.5,422.82,348.97,415.25,346.05
	z"/>
<path class="st22" d="M385.36,352.14c0.02,2.85,0.62,5.83-1.94,8.09c-0.68,0.6-1.23,1.47-0.81,2.41c1.91,4.33,6.62,4.62,10.1,6.53
	c2.61,1.43,3.44-1.71,4.45-3.52c0.64-1.14,1.29-2.18,2.67-2.47c-3.37,6.88-6.74,13.76-10.1,20.64c-0.7,1.04-0.71,2.46-1.75,3.3
	c-2.82,2.29-5.76,4.99-9.63,3.34c-3.84-1.64-2.88-5.39-2.45-8.59c0.17-1.23-0.03-2.55,0.64-3.7
	C378.06,369.02,381.05,360.35,385.36,352.14z"/>
<path class="st23" d="M432.41,336.11c2.66,2.21,2.04,3.45-1.15,3.99c-4.58,0.77-9.02-0.47-13.35-1.41
	c-11.03-2.39-22.13-4.35-33.25-6.26c-3.96-0.68-8.26-1.47-10.07-6.04c12.31-1.04,23.95,2.97,35.9,4.73
	c1.06,0.16,2.13,0.32,3.19,0.48c5.67,1.62,11.28,3.62,17.32,3.3C431.47,335.3,431.94,335.7,432.41,336.11z"/>
<path class="st24" d="M189.1,350c2.42,3.47,3.13,7.6,4.47,11.49c0.92,2.67,0.72,5.24-1.11,7.08c-2.12,2.11-3.78-1.01-5.88-1.3
	c-1.56,1.15-0.17,3.05-1,4.39c-0.74-0.62-1.5-1.24-2.26-1.87c-3.26-9.17-6.52-18.33-9.78-27.5C178.29,346.37,183.63,348.3,189.1,350
	z"/>
<path class="st25" d="M156.51,378.2c-0.34,0.81-0.48,2.11-1.06,2.35c-3.91,1.63-7.69,3.67-11.97,4.29
	c-2.99-6.15-5.97-12.3-8.96-18.45c5.5,2.44,10.25-1.3,15.37-1.92c1.5-0.18,0.81-1.71,1.12-2.62c2.66-0.05,0.8,2.63,2.07,3.43
	C153.18,369.86,156.25,373.66,156.51,378.2z"/>
<path class="st26" d="M176.95,325.03c-1.79-1.4-3.57-2.81-5.36-4.21c-2.33-3.69-6.01-6.24-8.3-10.03c-1.61-2.67-2.12-5.38-1.77-8.31
	c0.66-5.54,4.9-7.05,9.9-4.56c8.48,4.23,12.62,9.61,8.07,19.24C178.36,319.58,179.9,323.05,176.95,325.03z"/>
<path class="st27" d="M313.45,365.33c-4.85,7.93-9.23,16.16-15.43,23.2c-0.84,0.85-1.52,2.51-2.93,1.7
	c-1.69-0.97-0.66-2.62-0.11-3.87c3.34-7.61,7.05-15.05,10.46-22.62c0.89-1.97,2.12-3.82,2.03-6.12c0.23-2.51,1.11-4.77,2.57-6.81
	c0.81-1.12,1.76-2.11,2.97-2.81c2.39-0.72,4.33-4.52,7.03-2.15c2.52,2.2-0.07,4.93-0.78,7.42
	C318.01,357.62,315.47,361.34,313.45,365.33z"/>
<path class="st28" d="M152.02,306.63c-3.81-2.52-5.43-5.24-1.4-9.11c1.19-1.14,1.68-3.03,2.48-4.58c1.09-2.08,1.28-4.68,3.53-6.09
	c0.32,0.11,0.6,0.04,0.85-0.19c3.55,2.66,7.11,5.32,10.66,7.98c0.06,0.54,0.03,1.1-0.51,1.37c-6.2,3.11-7.58,6.82-4.66,13.11
	c0.88,1.9,1.77,3.56-0.23,5.22C158.47,312.75,156.02,308.62,152.02,306.63z"/>
<path class="st29" d="M287.37,360.04c3.34-6.68,4.21-14.2,8.52-21.88c-3.87,1.43-3.98,5-6.78,5.19c-0.86-5.88,4.03-9.32,6.01-13.99
	c0.82-1.95,2.47-3.56,2.49-5.87c0.68-2.85,2.93-4.44,4.97-6.2c0.34-0.35,0.69-0.69,1.03-1.04c4.31-0.67,6.34,0.4,4.23,5.15
	C301.93,334.77,296.29,348.28,287.37,360.04z"/>
<path class="st30" d="M117.17,371.84c0.32-0.04,0.64-0.01,0.95,0.09c2.6,3.46,4.83,7.16,7.15,10.81c1.08,1.7,2.78,3.54,4.85,2.54
	c2.22-1.07,0.37-3.16,0.12-4.8c-0.44-2.87-3.41-5.4-1.15-8.63c5.56,9.23,10.13,18.76,8.8,30.01c-0.16,1.4,0.21,3.05-1.71,3.54
	c-1.35,0.35-2.72-0.07-3.39-1.18C126.59,393.91,120.52,383.52,117.17,371.84z"/>
<path class="st31" d="M311.26,350.71c-0.87,2.32-1.74,4.63-2.6,6.95c-3.43,7.84-7.2,15.52-10.93,23.21
	c-0.83,1.72-1.54,3.73-3.96,3.93c-2.23-0.17-4.67,0.92-6.58-1.11c8.54-12.19,15.44-25.35,22.65-38.31
	C313.86,346.2,311.79,348.66,311.26,350.71z"/>
<path class="st32" d="M293.76,384.8c5.35-6.86,7.43-15.44,11.93-22.74c0.93-1.5,1.97-2.94,2.96-4.4c0.04,5.65-3.48,10.02-5.68,14.76
	c-2.6,5.62-4.5,11.58-8.17,16.66c1.69,1.04,2.13-0.85,3.21-0.56c-6.19,9.77-12.2,19.69-22.67,25.66
	C284.39,406.2,286.52,393.9,293.76,384.8z"/>
<path class="st33" d="M162.75,314.35c1.22-3.31-1.78-5.63-1.98-8.68c-0.5-7.34,0.69-9.31,7.38-11.02c3.93,0,5.1,4.21,8.29,5.45
	c1.57,0.61,2.82,2.05,4.67,2.13c1.31,1.16,3.51,1.4,2.38,4.4c-1.96,5.19-2.92,10.7-3.4,16.26c-0.17,2-0.1,4.35-3.14,2.14
	c1.01-4.93,1.9-9.88,3.08-14.76c0.86-3.56-0.13-5.94-3.48-7.47c-2.29-1.04-4.43-2.32-6.47-3.88c-3.2-2.45-6.33-0.99-7.05,3.03
	c-0.85,4.72,1.14,8.4,4.37,11.59c2.06,2.04,4.19,4.04,4.19,7.27C168.09,319.42,165.44,316.85,162.75,314.35z"/>
<path class="st34" d="M192.49,401.11c5.3-4.47,3.07-10.37,2.63-15.71c-0.44-5.43-1.18-10.74,1.06-16.6
	c5.43,7.42,8.92,15.11,10.39,23.72c-2.53-2.18-2.39-5.56-3.77-8.25c-0.57-1.1-1.36-2.38-2.85-1.98c-1.34,0.36-1.12,1.8-1,2.78
	c0.64,5.02-1.72,9.95-0.24,15.05c0.61,2.08-0.05,5.17-2.16,5.57C194.1,406.14,192.63,403.76,192.49,401.11z"/>
<path class="st35" d="M425.55,359.76c-0.88,0.63-2.07,1.07-2.57,1.92c-1.02,1.71-1.53,3.92-4.16,3.48c-2.94-0.49-4.39-3.2-4.79-5.36
	c-0.73-3.97-1.43-8.36,2.01-11.81c6.78-0.79,10.25,1.07,12.08,6.47C427.26,356.22,426.4,357.99,425.55,359.76z"/>
<path class="st36" d="M326.46,385.96c-0.42-4.77,2.4-9.41,0.72-14.23c-1.79-0.22-1.65,1.9-2.96,2.12c0.14-3.56,2.29-5.87,4.98-7.78
	c2.18-1.54,4.4-3,6.01-5.19c-1.66,16.69,0.62,33.37,0.08,50.06c-2.12-5.4-1.69-11.15-2.12-16.76c-0.48-6.16,0.29-12.44-2.1-19.07
	C327.6,378.32,329.38,383.2,326.46,385.96z"/>
<path class="st37" d="M150.81,345.72c6.65,0.58,9.9-3.01,9.86-10.9c2.89,3.34,2.76,7.88,4.59,11.64c1.91,3.66,1.41,7.15-0.65,10.59
	c-0.93,1.54-1.7,3.39-3.82,3.23c-1.96-0.15-2.13-2.14-2.71-3.56c-0.22-0.55-0.49-0.86-1-1.05c-0.97-1.14-1.94-2.28-2.9-3.41
	C151.68,350.78,150.55,348.6,150.81,345.72z"/>
<path class="st38" d="M95.56,351.94c-5.17,0.72-9.51-2.19-14.27-3.28c-1.57-1.68-3.06-3.43-4.72-5.02c-1.48-1.41-0.91-2.39,0.4-3.38
	c0.36,0,0.72,0.04,1.07-0.01c10.45-1.56,10.44-1.56,15.44,8.44c0.29,0.59,1.01,0.97,1.52,1.44
	C95.18,350.74,95.37,351.34,95.56,351.94z"/>
<path class="st39" d="M157.08,355.66c1.49,0.22,1.78,1.59,2.46,2.59c1.28,1.88,2.53,1.26,3.07-0.38c1.22-3.71,3.92-7.11,2.66-11.41
	c3.51,5.08,3.68,11.4,6.27,16.83c1.2,6.37-1.5,8.65-7.74,6.54C161.55,365.1,159.32,360.38,157.08,355.66z"/>
<path class="st40" d="M129.09,371.84c0.02,3.56,2.48,6.34,3.13,9.68c0.38,1.95,2.61,4.66-0.06,5.75c-2.43,0.99-5.65,0.57-7.46-2.41
	c-2.52-4.15-5.13-8.24-6.58-12.93c2.13,0.47,2.77,4.39,5.65,2.76c3.43-1.95,2.59-5.3,2.1-8.41
	C126.95,368.13,128.02,369.99,129.09,371.84z"/>
<path class="st41" d="M163.79,369.83c4.37-0.06,8.09-0.89,7.74-6.54c4.16,6.48,3.53,13.75,3.43,20.93
	c-0.01,0.88,0.03,1.96-1.06,2.24c-1.03,0.27-1.61-0.57-2.11-1.33C168.66,380.28,165.74,375.31,163.79,369.83z"/>
<path class="st42" d="M359.18,370.67c0.42,1.9-0.45,3.96,0.95,6.3c1.68-2.47,3.22-4.73,4.76-6.99c1.27-1.85,2.65-2.21,4.19-0.3
	c-1.28,5.79-4.99,10.29-8.14,15.07c-0.84,1.27-2.15,2.89-4.02,1.86c-1.59-0.88-0.89-2.53-0.48-3.91
	C357.6,378.74,357.13,374.42,359.18,370.67z"/>
<path class="st43" d="M372,332.09c1.12,2.81,3.62,2.24,5.9,2.61c11.45,1.86,22.63,4.8,33.4,9.18c0.92,0.38,1.61,1.33,2.41,2.02
	c-0.69,0.65-1.38,1.3-2.08,1.95c-6.76-6.28-15.93-5.82-23.95-8.54c-3.1-1.91-6.72-1.6-10.1-2.33c-2.38-0.51-4.97-0.44-6.56-2.77
	C371.23,333.46,371.03,332.5,372,332.09z"/>
<path class="st44" d="M439.87,351.18c-5.2,13.16-12.8,25.22-17.79,38.48c-0.27,0.71-1.29,1.13-1.96,1.68
	c1.43-7.19,4.64-13.73,7.73-20.26c3.64-7.68,7.91-15.05,11.9-22.56C440.65,349.37,440.53,350.26,439.87,351.18z"/>
<path class="st45" d="M208.7,323.91c-0.04,0.76-0.07,1.53-0.11,2.29c0.75,3.82,1.97,7.53,2.22,11.48c0.19,3.13,0.03,5.46-4.1,4.65
	c-0.88-0.17-1.55,0.8-2.38,1.14C201.01,334.11,202.3,328.37,208.7,323.91z"/>
<path class="st46" d="M204.32,343.47c-0.1-4.9,1.61-5.55,5.07-1.54c1.43-5.75-2.09-10.62-0.8-15.73c1.53,3.07,3.3,5.97,5.56,8.56
	c0.65,0.71,0.74,1.45,0.07,2.2c-0.9-0.48-1.8-0.97-2.99-1.6c0.34,1.72,0.56,3.11,0.89,4.47c0.81,3.32,3,7.39-3.79,5.98
	c-1.23-0.26-1.57,1.2-1.93,2.2C205.06,346.79,204.95,345.01,204.32,343.47z"/>
<path class="st47" d="M439.87,351.18c-0.04-0.88-0.07-1.77-0.11-2.65c2.36-3.44,4.71-6.88,7.07-10.33
	c3.72,0.41,7.44,0.78,11.15,1.28c1.06,0.14,2.87,0.11,1.53,2.13c-6.12-0.89-11.21,0.83-15.24,5.67
	C443.02,348.77,441.35,349.89,439.87,351.18z"/>
<path class="st48" d="M311.26,350.71c-0.45-1.79,0.69-4-1.43-5.34c2.33-5.59,4.68-11.16,9.63-16.78c-0.33,4.9-1.5,8.22-2.72,11.52
	c-1.36,2.78,0.37,6.75-3.32,8.63C312.7,349.4,311.98,350.05,311.26,350.71z"/>
<path class="st49" d="M428.11,354.45c-2.62-4.78-7.85-4.7-12.08-6.47c-0.26-0.64-0.53-1.29-0.78-1.93c1.59-0.63,3.23-0.55,4.71,0.11
	c6.14,2.73,11.72,2.05,16.78-2.45C433.86,347.29,430.99,350.87,428.11,354.45z"/>
<path class="st50" d="M369.14,313.91c-2.64,1.75-5.28,3.5-7.92,5.25c-3.34,1.4-5.92,4.25-9.58,5.04c-1.8-1.69-1.32-3.52-0.35-5.39
	c0.31-0.46,0.69-0.85,1.12-1.2c2.32-1.3,4.52-2.81,7.02-3.79c3.13-0.39,5.91-3.25,9.38-1.37
	C369.28,312.85,369.39,313.34,369.14,313.91z"/>
<path class="st51" d="M345.16,304.26c0.71-0.09,1.43-0.18,2.14-0.28c3-1.33,4.36,0.52,5.12,2.9c1.01,3.2,2.1,6.44,1.32,9.9
	c-0.27,0.57-0.6,1.11-0.99,1.61c-0.29-0.04-0.56,0.01-0.82,0.14c-1.59,0.97-2.56-0.25-3.66-1.02
	C347.38,313.07,345.24,308.9,345.16,304.26z"/>
<path class="st52" d="M313.42,348.74c1.11-2.88,2.22-5.75,3.32-8.63c0.83,0.99-1.39,4.41,2.31,3.08c3.94-1.41,3.5,1.33,3.11,3.38
	c-1.31,6.96-3.96,13.37-8.71,18.76c1.77-4.27,3.5-8.55,5.31-12.8c0.85-2.01,1.57-3.99,0.76-6.17
	C316.69,345.21,316.36,350.29,313.42,348.74z"/>
<path class="st53" d="M150.81,345.72c1.24,2.12,2.95,3.98,3.36,6.53c-3.06,0.29-3.72,2.02-2.91,4.74c0.81,2.72,2.26,5.3,1.82,8.29
	c-0.69-1.14-1.38-2.28-2.07-3.42c-3.31-4.96-2.08-10.87-3.36-16.25C148.76,344.24,149.78,345.18,150.81,345.72z"/>
<path class="st7" d="M186.54,325.61c-2.8-3.85-1.66-7.73-1.57-11.43c0.02-0.87,0.66-1.71,1.74-1.77c0.99-0.05,1.09,0.78,1.27,1.46
	C189.01,317.72,190.25,321.6,186.54,325.61z"/>
<path class="st54" d="M348.27,317.52c1.43-0.42,2.49,0.52,3.67,1.02c-0.1,1.88-0.2,3.77-0.3,5.65c-1.94,1.52-3.53,2.15-3.47-1.37
	C348.2,321.05,348.24,319.28,348.27,317.52z"/>
<path class="st55" d="M123.55,361.11c-1.57-1.19-3.14-2.65,0.13-3.34c2.67-0.56,5.8-1.03,6.67,2.96
	C128.04,360.12,125.56,356.31,123.55,361.11z"/>
<path class="st56" d="M349.36,87.12c6.84-1.79,13.77-2.05,20.71-1.65c0.52,2.3-1.08,2.61-2.02,3.1
	c-13.09,6.86-21.09,18.36-28.56,30.54c-7.11,11.6-9.78,24.91-15.11,37.17c-5.68,13.03-12.37,25.36-24.08,34.14
	c-0.39-1.42-0.71-1.13-1.81-0.32c-11.66,8.67-24.77,12.79-39.33,12.15c-1.97-0.09-3.99,0.06-5.71-1.21
	c-1.73-3.72,1.41-5.75,2.88-8.36c4.91-2.46,10.34-1.1,15.5-2.12c15.08-2.98,26.76-10.86,35.21-23.49c4.14-6.18,7.93-12.63,9.7-20
	c2.2-4.61,3.2-9.59,4.35-14.52c1.91-10.09,4.3-20.15,0.89-30.39c-0.37-1.11-0.19-2.14,0.48-3.09c4.19-3.39,9.43-4.19,14.36-5.68
	c5.29-1.6,10.82-2.45,15.52-5.06C351.44,88.23,350.13,88.38,349.36,87.12z"/>
<path class="st7" d="M210.91,219.11c-0.12-0.85-0.52-1.77-0.3-2.52c1.38-4.86-0.62-7.73-5.16-9.23c1.1-3.42-3.67-5.4-2.19-8.91
	c4.04-0.57,4.5-3.51,4.48-6.76c5.11,0.47,5.43,0.1,4.4-5.02c-0.46-2.3-1.06-4.54-2.66-6.36c-0.8-1.56-1.14-3.11,0.05-4.65
	c0.88,0.58,1.79,1.12,2.62,1.76c1.44,1.11,0.63,4.79,3.38,3.95c2.24-0.68,1.94-3.52,1.94-5.68c2.85-0.74,3.7,1.73,4.89,3.29
	c6.21,8.12,13.37,15.09,22.73,19.53c2.22,1.29,4.5,2.44,6.94,3.27c1.66,1.03,4.54,0.19,4.92,3.19c-1.24,1.85-3.77,1.07-6.21,3.55
	c9.35,2.38,17.89,1.55,26.54,1.01c0-3.1-3.39-2.82-3.36-5.12c2.17-2.7,4.74-3.42,7.82-1.59c0.41,5.21,4.92,4.9,8.11,5.24
	c3.31,0.35,5.7,1.35,8.05,3.63c3.65,3.54,8.1,2.83,11.26-1.34c1.92-2.52,4.59-4.12,7.49-5.12c3.07-1.06,4.11-2.39,1.41-4.83
	c-3.08-2.78-3.12-5.99-1.4-9.33c1.18-2.29,1.11-3.85-1.09-5.55c-1.29-0.99-2.75-2.79-1.11-4.66c1.07-1.21,2.62-2.12,4.35-1.73
	c2.33,0.52,2.59,2.61,2.19,4.34c-1.23,5.44-0.23,10.28,3.41,14.44c1.32,1.51-1.54,2.58-0.03,3.85c1.05,1.7-0.74,3.43,0.08,5.11
	c1.32,1.46,4.66-1.78,4.9,2.09c-0.07,0.73-0.3,1.42-0.53,2.11c-0.76,3.31,2.47,5.02,3.12,7.76c0.4,2.99,2.5,4.69,4.75,6.28
	c0.68,0.81,1.26,1.66,0.72,2.79c-2.44-0.29-4.32-1.58-6-3.28c-4.69-4.76-5.83-4.62-9.33,1.07c-1.47-1.38-1.64-3.54-3.03-4.97
	c-4.18-4.36-6.75-4.15-11.05,0.94c-8.17,3.51-16.34,7.04-25.1,1.65c-4.64-5.73-11.21-6.48-17.89-6.92
	c-2.57-0.04-5.15,0.06-7.72-0.13c-10.19-1.35-18.63-6.59-26.94-12.13c-2.5-2.53-4.59-1.89-6.71,0.63c-3.03,3.6-5.02,7.81-7.31,11.85
	c-0.72,1.11-1.12,2.46-2.38,3.15C212.81,220.13,211.76,220.1,210.91,219.11z"/>
<path class="st57" d="M369.07,313.13c-3.64-1.06-6.38,2.23-9.83,2.04c0.3-4.53,2.43-9.4-2.46-12.98c-0.53-0.39-0.58-1.27-0.48-2
	c0.07-0.53,0.36-0.98,0.75-1.36c4.6-3.55,10.43-5.41,13.72-10.81c1.46-2.39,3.68-1.6,5.03,0.8c1.04,1.85,2.08,3.71,3.12,5.57
	c5.93,7.75,5.99,7.84-2.55,14.02C374.03,310.08,373,313.9,369.07,313.13z"/>
<path class="st0" d="M315.6,244.21c0.88,0.22,2.03,0.48,1.69,1.63c-1.68,5.72,1.24,12.4-3.77,17.51c-0.95,0.96-1.5,2.89-0.76,4.62
	c1.1,2.55,0.78,4.92-0.96,7.11c-0.31,0.39-0.61,1.13-0.45,1.51c4.36,10.17-4.92,12.15-9.96,16.66c-1.12-2.28,0.39-5.56-3.36-7
	c-1.35-0.52,0.1-3.07,1.37-4.07c10.2-7.96,9.66-20.42,13.39-31.2c-3.61,2.07-6.61,4.67-9.91,6.84c-5.86,3.86-12.15,6.61-19.33,6.42
	c-1.9-0.05-4.56,0.67-5.01-2.54c9.8-0.42,19.19-1.92,26.15-9.87C309.21,250.54,311.4,245.94,315.6,244.21z"/>
<path class="st58" d="M304.69,243.16c-3.94,2.12-5.91,6.47-10.62,8.05c-7.52,2.53-14.16,0.81-18.73-6.23
	c2.99-1.27,5.16,0.92,7.6,1.86c6.47,2.49,12.78,0.73,16.3-4.69c0.59-0.9,1.43-1.84,0.91-2.94c-0.56-1.17-1.85-0.97-2.91-0.9
	c-3.64,0.25-7.07,1.47-10.55,2.44c-1.97,0.55-4.04,2.02-6.06,0.01c1.97-3.56-0.36-3.87-3.03-4.16c-4.04-0.44-8.26,1.24-12.15-0.99
	c1.51-2.11,3.94-1.75,5.97-1.92c10.52-0.89,20.45-4.47,30.72-6.48c2.3-0.45,4.57-1.13,6.96-0.9c1.31,0.19,2.59,0.46,3.37,1.7
	c-3.55,1.55-7.69,1.03-11.08,3.17c-1.33,2.47,1.24,2.22,2.17,3.11C309.95,236.5,305.66,240.04,304.69,243.16z"/>
<path class="st59" d="M256.85,204.9c-1.92-0.65-3.83-1.3-5.75-1.95c-0.69-1.18-0.44-2.11,0.74-2.81c0.56-0.17,1.1-0.11,1.62,0.17
	c17.8,2.18,33.54-2.94,48.5-14.18c-0.76,1.97-1.21,3.14-1.66,4.31c-5.83,4.66-12.05,8.74-18.57,12.37
	c-2.66,0.16-5.21,0.72-7.51,2.12C268.42,207.96,262.64,207.99,256.85,204.9z"/>
<path class="st60" d="M359.03,265.68c1.78-1.19,3.32-4.83,5.65-0.57c1.47,4.07,3.42,7.95,5.02,11.97
	c-3.04,4.71-8.62,6.26-12.42,10.02c-2.45,0.61-3.35-0.66-3.15-2.84c0.22-2.31,0.42-4.65,0.13-6.93
	C353.66,272.47,355.12,268.61,359.03,265.68z"/>
<path class="st0" d="M379.75,198.45c0.93,1,2.14,1.1,3.39,1.09c3.35-0.04,3.98,1.58,2.67,4.38c-2.56-1.19-5.26-1.83-7.79-0.28
	c-9.38,5.75-18.85,11.42-25.59,20.48c-3.04,3.27-6.39,6.25-9.31,9.64c-0.86,1-1.7,2.47-3.5,1.53c0.23-1.74,1.37-3.49-0.06-5.22
	c0.24-2.68,2.2-4.39,3.61-6.41c5.96-5.84,11.6-12.04,18.88-16.36c4.48-1.83,5.8-6.73,9.24-9.57
	C374.2,197.11,377,197.53,379.75,198.45z"/>
<path class="st61" d="M322.46,208.46c-1.68-2.89,1.37-4.45,1.9-6.72c7.36-8.34,14.75-16.67,24.26-22.71
	c2.73-1.73,5.52-3.44,8.46-4.77c3.36-1.51,6.11-1.2,6.07,3.52c-4.18,1.81-7.81,4.72-12.24,6.05c-1.92-0.17-3.35,0.69-4.87,1.83
	c-3.9,2.94-7.06,6.71-11.02,9.55c-1.72,1.23-1.99,2.8-1.44,4.68C331.37,204.69,328.24,208.31,322.46,208.46z"/>
<path class="st62" d="M379.75,198.45c-3.12,2.18-5.95,0.03-8.89-0.59c-2.76-0.3-4.05-2.67-5.94-4.19c-2.63-3.01-5.94-5.39-8.14-8.8
	c-0.18-0.51-0.21-1.02-0.1-1.55c2.42-3.94,5.63-3.24,9.01-1.52c4.58,3.45,8.5,7.6,12.37,11.8
	C379.36,195.01,380.01,196.54,379.75,198.45z"/>
<path class="st63" d="M339.64,235.29c3.96-3.88,7.05-8.63,11.73-11.8c6.5-6.01,13.83-10.92,21.19-15.78c1.35-0.9,2.68-2,4.34-2.12
	c1.6-0.12,3.05,0.24,1.93,2.44c-12.95,8.45-25.02,17.94-34.92,29.95c-1.39,1.17-2.02,3.78-4.55,2.81c-1.18-0.46-1.94-1.64-0.85-3.03
	C338.89,236.94,339.26,236.11,339.64,235.29z"/>
<path class="st64" d="M365.69,181.8c-3.15-0.37-6.33-0.85-8.68,2.09c-0.25,1.51-1.67,1.78-2.64,2.54
	c-8.74,4.4-14.15,12.3-20.34,19.38c-1.57,1.49-2.33,4.27-5.38,3.41c-0.21-1.68-0.96-1.4-2.03-0.65c-1.36,0.94-2.81,1.41-4.15-0.11
	c5.22-1.01,7.65-5.22,10.41-9.06c2.17-5.1,7.03-7.77,10.68-11.5c1.86-1.9,3.4-4.88,6.88-4.55c4.07-2.26,7.58-5.78,12.73-5.56
	C361.11,180.95,365.89,179.8,365.69,181.8z"/>
<path class="st65" d="M378.83,208.03c-0.6-2.5-1.81-1.44-3.07-0.57c-6.88,4.74-13.8,9.43-20.65,14.22
	c-1.18,0.83-2.14,1.91-3.74,1.81c6.94-9.75,16.8-15.97,26.92-21.73c2.46-1.4,6.05-2.12,7.53,2.16
	C383.48,205.29,381.16,206.66,378.83,208.03z"/>
<path class="st66" d="M328.64,209.21c2.4-0.34,2.59-3.1,4.44-4.05c1.83,5.34,5.81,9.33,8.76,13.96c1.05,1.66,2.22,3.3,2.13,5.42
	c-1.06,2.16-2.41,4.09-4.39,5.53c-0.73-0.73-1.45-1.46-2.18-2.19c-0.33-0.73-0.67-1.46-1-2.19c-1.29-1.23-2.7-2.37-3.49-4.04
	c-0.72-2.89-2.69-5.07-4.3-7.44c-0.79-1.17-2.11-2.11-1.12-3.78C327.86,210.02,328.25,209.62,328.64,209.21z"/>
<path class="st67" d="M344.95,249.58c0.72-0.74,1.43-1.48,2.15-2.21c2.46-1.12,2.12-6.62,6.77-4.32c1.57,2.58,3.13,5.16,4.7,7.74
	c-3.25,6.64-8.72,10.45-15.72,12.31c-0.84-0.92-0.99-2.19-0.27-2.96C345.45,257.03,345.12,253.31,344.95,249.58z"/>
<path class="st68" d="M312.48,228.02c-1.15-0.07-2.31-0.15-3.46-0.22c1.01-3.85,5.3-2.1,7.64-4.49c-3.01-0.58-5.59,0.01-8.1,0.85
	c-6.17,2.07-12.54,3.4-18.78,5.24c-3.61,1.06-7.36,2.1-11.05,0.05c-0.57-3.52,2.62-4.77,4.22-6.98c8.72,3.57,16.94,1.53,25.01-2.25
	c3.99-2.6,7.99-2.55,12-0.07c2.41,1.19,2.25,3.36,2.12,5.53C318.87,226.45,315.68,227.23,312.48,228.02z"/>
<path class="st69" d="M341.72,276.94c2.11-1.21,4.22-2.42,6.33-3.63c5.24-0.71,8.13,2.99,6.55,9.17c-0.8,3.15-1.9,6.58-5.49,8.05
	c-1.99,0.27-2.98-1.03-3.53-2.58C344.27,284.29,342.36,280.83,341.72,276.94z"/>
<path class="st70" d="M341.72,276.94c3.06,2.13,3.35,5.7,4.62,8.77c0.66,1.58,0.21,3.69,2.19,4.65c0.71,0.21,1.03,0.71,1.04,1.43
	c-2.31,1.92-4.43,4.14-7.59,4.68c-0.31-5.46-0.22-10.98-3.17-15.93c-0.8-1.34,0.23-2.37,0.84-3.43
	C340.34,277.06,341.03,277,341.72,276.94z"/>
<path class="st71" d="M349.57,291.79c-0.35-0.48-0.7-0.96-1.05-1.43c2.5-3.73,5.86-6.84,4.58-12.34c-0.77-3.31-2.09-4.5-5.06-4.71
	c3.43-2.88,6.92-5.67,10.99-7.63c-5.23,6.06-2.02,13.59-3.43,20.32c-0.05,0.24,1.1,0.72,1.69,1.09
	C355.09,289.28,352.47,290.76,349.57,291.79z"/>
<path class="st72" d="M352.89,317.25c-0.69-3.33-1.44-6.65-2.05-10c-0.37-2.07-1.4-3.22-3.55-3.27c1.3-1.94,3.26-2.67,5.46-2.94
	c4.02,1.06,6.75,3.27,6.82,7.78C359.65,313.45,357.21,316.1,352.89,317.25z"/>
<path class="st73" d="M352.89,317.25c7.38-6.04,7.37-7.87-0.14-16.21c1.47-0.66,2.36-2.44,4.28-2.23c0.12,1.05-0.09,2.09,0.79,3.04
	c5.38,5.77,5.53,7.4,1.41,13.31c-2.18,1.04-3.88,3.04-6.48,3.24C352.8,318.02,352.85,317.64,352.89,317.25z"/>
<path class="st0" d="M335.19,266.04c-3.63-2.26-3.99-6.33-5.42-9.82c-0.73-0.54-1.2-1.22-1.09-2.18c-0.07-3.85,0.37-6.73,5.26-3.61
	c1.81,1.16,3.72-0.66,5.64-0.76c1.11,0.37,2.22,0.75,3.32,1.12c-0.41,2.98-3,2.24-4.81,2.85c-1.14,0.23-2.32-0.16-3.44,0.27
	c-1.02,2.28,0.66,4.09,1.04,6.11C336.1,262.1,337.17,264.2,335.19,266.04z"/>
<path class="st74" d="M335.19,266.04c0.1-4.01-1.58-7.54-2.98-11.14c-0.83-2.12-0.85-3.47,2.01-3.06c3.7,2.62,4.37,6.88,5.81,10.73
	c0.49,1.59,1.75,3.24-0.34,4.64c-0.79,1.26-1.99,1.92-3.38,2.3C334.44,268.84,336.09,267.03,335.19,266.04z"/>
<path class="st75" d="M337.39,252.55c1.51-1.61,4.15,0.31,5.52-1.74c0.68-0.41,1.36-0.82,2.03-1.23c2.96,3.62,3,7-0.61,10.29
	c-0.71,0.65-0.93,1.84-1.38,2.78c-0.46,0.37-0.96,0.39-1.47,0.13C340.21,259.34,338.52,256.06,337.39,252.55z"/>
<path class="st76" d="M341.49,262.59c0.49,0.02,0.98,0.05,1.47,0.07c6.35-2.45,11.08-7.03,15.6-11.87c1.83,2.24,0.23,3.7-1.3,4.92
	c-5.49,4.39-10.85,8.99-17.57,11.51c0.98-1.4-0.28-2.26-0.79-3.3C339.54,263.03,340.28,262.35,341.49,262.59z"/>
<path class="st0" d="M369.07,313.13c4.91-2.13,8.17-6.35,12.16-9.65c1.98-1.63,1.66-3.34,0.18-5.14c-0.99-1.21-2.6-2.06-2.5-3.96
	c1.34,1.2,2.72,2.37,4.03,3.61c1.49,1.41,2.17,3.88,1.01,4.91c-4.59,4.08-8.28,9.5-14.8,11.01
	C369.11,313.65,369.08,313.39,369.07,313.13z"/>
<path class="st77" d="M322.78,171.84c3.52,2.88,4.75,5.75,6.4,8.3c0.47,0.72,0.96,1.66,0.05,2.41c-0.85,0.7-1.81,0.24-2.46-0.3
	C323.86,179.83,322.62,176.74,322.78,171.84z"/>
<path class="st78" d="M369.7,277.07c-4.15-2.95-4.98-7.29-5.02-11.97C367.53,268.6,371.32,271.7,369.7,277.07z"/>
<path class="st75" d="M353.86,243.05c-3.58-0.64-3.97,3.72-6.77,4.32c1.51-2.62,3.02-5.23,4.57-7.91
	C353.31,240.35,353.72,241.62,353.86,243.05z"/>
<path class="st0" d="M338.51,237.76c1.58,5.69,3.6,0.14,5.4,0.22c-0.64,2.51-1.88,4.59-4.82,3.58
	C337.36,240.96,336.76,239.33,338.51,237.76z"/>
<path class="st0" d="M303.58,234.31c-1.67-0.31-4.09,1.24-4.81-1.3c-0.35-1.25,1.37-1.71,2.64-1.81
	C302.13,232.23,302.85,233.27,303.58,234.31z"/>
<path class="st0" d="M145.5,280.25c-0.14,0.12-0.4,0.24-0.4,0.35c0.26,7.95-4.78,15.18-3.16,23.31c0.21,1.04,0.6,2.31-0.62,2.88
	c-1.24,0.59-2.31-0.51-2.57-1.39c-0.95-3.18-4.99-4.72-5.46-6.94c-1.74-8.12-5.52-15.76-5.92-24.15c-0.08-1.68,1.33-3.44-0.42-5
	c1.41-4.99,4.65-5.25,8.72-3.37c1.45,6.4,5.61,10.32,11.52,12.69C148.22,280.83,147.27,280.96,145.5,280.25z"/>
<path class="st79" d="M19.03,147.26c0.88,0.6,0.89,1.47,0.74,2.4c-3.16,20.3-2.64,40.67-0.58,60.99c0.56,5.47,2.76,10.78,4.21,16.17
	c0.61,1.43,1.32,3-0.19,4.18c-0.84,0.66-1.52-0.18-1.9-1.02c-2.2-5.41-4.4-10.82-6.59-16.22c-2.64-15.76-3.02-31.6-1.49-47.5
	C13.88,159.52,15.55,153.12,19.03,147.26z"/>
<path class="st80" d="M40.71,132.71c-2.17,1.62-4.22,3.45-6.54,4.81c-2.2,1.3-4.41,4.15-7.26,2.13c-3.02-2.14-3.86-5.72-3.54-9.28
	c0.68-7.62,10.64-14.68,17.97-12.65c4.24,1.18,7.8,3.29,6.03,8.8c-1.67,2.13-4.11,1.99-6.45,2.24c-1.98,0.22-3.96,0.58-5.83,2.11
	C36.95,131.85,39.93,129.36,40.71,132.71z"/>
<path class="st81" d="M112.88,268.23c-4.49,4.46-10.14,5.04-15.88,4.13c-2.94-0.46-6.87-1.53-3.73-6.21
	c1.89,1.82,3.83,2.28,6.37,1.01c9.46-4.71,18.74-9.66,26.42-17.1c3.8-2.53,6.61-6.35,10.81-8.37c3.48,1.93,1.1,4.06-0.02,5.81
	c-4.38,6.84-10.46,11.95-17.29,16.22C117.29,265.15,114.61,265.99,112.88,268.23z"/>
<path class="st82" d="M127.3,251.01c-8.23,7.74-17.87,13.32-28.01,18.08c-2.83,1.33-6.3,2.69-6.02-2.94
	c2.96-2.48,6.44-3.98,10.01-5.3c9.52-3.52,16.89-10.29,24.79-16.28C129.85,246.97,127.45,248.86,127.3,251.01z"/>
<path class="st83" d="M112.88,268.23c-0.37-2.66,2.03-2.92,3.48-3.92c7.2-4.95,14.34-9.96,19.23-17.43
	c0.99-1.51,3.06-2.88,1.44-5.18c-0.81-1.84,0.95-2.77,1.47-4.13c3.81,1.68,4.63,4.81,2.05,9.21c-1.87,3.2-4.1,6.19-6.17,9.27
	c-2.62,2.54-5.2,5.13-8.63,6.6l-0.03-0.01c-1.62,2.11-3.7,3.07-6.38,2.54C117.2,266.2,115.04,267.22,112.88,268.23z"/>
<path class="st84" d="M60.12,179.84c-2.24-0.1-4-1.31-4.2-4.17c-0.25-3.58,5.35-10.13,8.69-9.92c2.9,0.18,4.56,2.03,4.76,4.95
	C69.58,173.96,64.02,179.67,60.12,179.84z"/>
<path class="st85" d="M83.52,195.48c2.07-0.14,2.93,1.03,3.08,2.91c0.24,3.09-5.33,9.75-8.23,9.81c-2.49,0.05-3.53-1.63-3.86-3.72
	C74.05,201.68,80.2,195.67,83.52,195.48z"/>
<path class="st86" d="M74.23,181.21c1.22,0.13,2.43,0.56,3.16,1.66c0.82,1.23,0.39,2.43-0.62,3.37c-2.09,1.94-3.23,4.78-5.92,6.16
	c-1.6,0.82-3.05,0.79-4.44-0.48c-1.46-1.33-1.49-2.85-0.53-4.35C67.86,184.48,70.35,181.96,74.23,181.21z"/>
<path class="st87" d="M59.52,155.45c0.11,3.48-7.39,8.71-10.54,7.54c-0.17-0.06-0.34-0.13-0.49-0.23c-1.66-1.17-1.67-2.91-0.8-4.29
	c2.03-3.18,4.46-6.26,8.58-6.52C58.27,151.83,59.19,153.73,59.52,155.45z"/>
<path class="st88" d="M103.72,225.68c-1.72,3.4-3.51,6.93-7.28,8.75c-1.36,0.66-2.81,0.22-3.83-1.11c-1.14-1.48-1.17-3.02-0.06-4.45
	c2.01-2.6,4.73-4.46,7.56-5.96C102.23,221.78,103.35,223.36,103.72,225.68z"/>
<path class="st89" d="M42.15,150.57c-2.11-0.28-3.06-1.65-1.52-3.58c2.22-2.79,4.83-5.28,8-7.06c0.94-0.53,2.14-0.93,2.9,0.12
	c0.45,0.63,0.6,1.69,0.47,2.49C51.58,145,44.8,150.6,42.15,150.57z"/>
<path class="st90" d="M40.71,132.71c-1.77-1.35-3.39-0.71-4.98,0.37c-1.11,0.76-2.44,1.42-3.26-0.07c-0.81-1.47-0.01-2.67,1.38-3.62
	c4.13-2.81,9-1.96,13.5-2.87C46.72,130.27,43.68,131.46,40.71,132.71z"/>
<path class="st91" d="M112.5,239.97c0.04,3.34-6.05,8.27-9.18,7.33c-1.1-0.33-2.91-0.89-1.64-2.46c2.22-2.76,4.61-5.52,8.02-6.89
	C111.31,237.3,112.5,238.01,112.5,239.97z"/>
<path class="st92" d="M93.05,214.94c-1.38,1.43-2.59,3.07-4.17,4.23c-1.72,1.26-3.8,1.59-5.3-0.48c-1.49-2.06,0.11-3.38,1.49-4.56
	c1.09-0.94,2.36-1.68,3.55-2.51C92.1,210.05,93.87,210.76,93.05,214.94z"/>
<path class="st93" d="M138.51,237.58c0.73,1.82-0.93,2.78-1.48,4.13c-2.66,3.72-6.33,6.37-9.74,9.3c-0.86-2.28,0.12-4.34,0.78-6.43
	C131.56,242.25,135.03,239.91,138.51,237.58z"/>
<path class="st94" d="M146.66,279.17c-7.12-1.13-12.82-8-10.98-13.23c0.71,0.44,1.41,0.88,2.12,1.32c1.61,2.67,2.86,5.61,5.51,7.51
	C144.74,276,147.48,276.23,146.66,279.17z"/>
<path class="st95" d="M93.05,214.94c0.2-3.34-2.22-3.18-4.43-3.32c1.5-2.38,3.92-3.26,5.9-1.52
	C96.43,211.78,94.62,213.62,93.05,214.94z"/>
<path class="st0" d="M125.77,262.66c2.66-2.49,5.43-4.82,8.63-6.6c0.06,0.41,0.12,0.81,0.18,1.21c-1.44,0.78-2.55,1.86-3.29,3.33
	C129.46,261.33,127.9,262.77,125.77,262.66z"/>
<path class="st0" d="M119.36,265.18c2.13-0.85,4.25-1.69,6.38-2.54C125.06,267.12,122.33,266.44,119.36,265.18z"/>
<path class="st96" d="M244.94,199.84c-10.03-4.07-17.12-11.6-23.67-19.83c-1.19-1.49-1.87-3.49-3.83-4.32
	c-0.76-1.14-1.52-2.28-2.28-3.41c-9.48-14.96-13.72-32.22-21.13-48.08c-6.65-14.25-15.91-26.35-29.24-35.04
	c-1.03-0.67-1.89-1.58-4.1-3.44c12.35-1.6,22.43,2.28,32.7,4.71c0.69,1.37,3.41-0.3,3.22,1.84c-0.15,1.67-2.09,1.69-3.48,1.85
	c-3.17,0.36-6.39-0.03-10.34,0.28c2.4,2.71,4.29,4.99,6.1,7.34c6.33,10.39,11.45,21.29,15.35,32.87
	c5.98,17.78,14.82,34.11,26.48,48.89c3.1,3.93,6.91,6.81,11.12,9.31c2,1.72,4.59,2.88,5.4,5.72
	C247.07,199.98,246.17,200.2,244.94,199.84z"/>
<path class="st97" d="M264.34,119.81c0.61,17.43-0.81,34.82-1.21,52.23c-0.08,3.26-1.61,3.9-4.59,3.36
	c-9.02-1.66-10.03-2.53-9.52-11.7c0.54-9.76,1.3-19.54,5.26-28.7c2.29-4.63,5.03-9,7.72-13.4
	C262.57,120.69,262.93,119.58,264.34,119.81z"/>
<path class="st98" d="M318.01,147.46c-7.43,27.43-30.1,46.64-58.12,45.69c-1.09-0.04-2.17-0.01-3.26-0.02
	c-3.24,1.55-5.87-0.48-8.69-1.48c-0.99-0.62-1.76-1.45-2.38-2.43c-1.76-4.2-1.55-4.51,2.62-3.97c29.79,10.87,50.89-7.29,61.87-28.42
	c2.91-5.6,5.29-11.47,7.91-17.21C321.55,142.21,317.76,144.84,318.01,147.46z"/>
<path class="st99" d="M187.96,102.52c-2.9-2.62-4.67-6.31-8.05-9.28c5.15,0,10.3,0,15.49,0c0.07-2.13-1.77-1.74-1.99-2.84
	c6.54,0.36,11.97,3.63,17.5,6.65c1.27,0.69,1.76,1.5,1.11,3.06c-6.14,14.81-2.3,29.05,2.56,43.23c1.22,3.57,3.41,6.78,3.96,10.59
	c-1.27,1.61,0.49,2.42,0.9,3.61c0.6,1.71,1.94,3.49-0.09,5.17c-1.69,0.02-2.83-1-3.32-2.38c-5.21-14.36-13.43-27.88-12.27-44.05
	c0.25-3.44,0.3-6.79,1.61-10.11c1.63-4.11,0.87-5.07-3.72-5.26c-4.36-0.17-8.72-0.08-13.29-2.55
	C188.88,100.04,189.22,101.49,187.96,102.52z"/>
<path class="st100" d="M233.33,160.29c-6.37-7.02-6.5-14.24-1.5-22.24c4.28-6.85,9.88-11.94,16.99-15.52
	c0.96-0.48,2.13-1.04,3.04-0.21c1.07,0.98,0.01,1.97-0.45,2.86c-1.15,2.25-2.37,4.48-3.56,6.71c-7.01,6.96-11.31,15.12-11.56,25.22
	C236.26,158.59,236.29,161.09,233.33,160.29z"/>
<path class="st101" d="M233.33,160.29c1.85-0.92,1.64-2.63,1.48-4.21c-0.82-8.04,3.69-14.22,7.16-20.77
	c1.25-2.35,3.98-2.18,5.88-3.42c-3.76,11.17-5.52,22.86-8.24,34.61C236.43,164.71,235.23,162.16,233.33,160.29z"/>
<path class="st102" d="M293.86,141.68c-2.79-1.98-5.74-3.74-8.03-6.36c-0.76-0.87-1.25-2.59-2.9-1.45
	c-1.22,0.85-1.13,2.08-0.51,3.39c3.17,6.75,4.6,14.05,6.49,21.19c0.75,2.82,2.08,7.34-0.97,8.27c-2.39,0.73-3.52-3.96-4.1-6.63
	c-1.37-6.31-4.68-12.07-5.15-18.61c2.87,0.26,3.22,2.85,3.83,4.74c1.43,4.47,3.27,8.85,3.73,13.02c0.32,1.25,1.24,0.3,0.56,0.58
	c-0.07,0.03-0.14-0.05-0.19-0.24c-2.43-9.5-5.83-18.63-10.23-27.4c-0.74-1.47-1.32-3-1.18-4.7c0.26-1.57,1-2.66,2.74-2.73
	c5.79,2.7,10.5,6.77,14.49,11.68C293.61,137.87,295.22,139.43,293.86,141.68z"/>
<path class="st103" d="M293.86,141.68c-2.23-5.9-7.28-9.26-11.92-12.91c-1.29-1.02-2.42-2.11-3.55-3.26c-1-2.86,0.76-3.06,2.75-2.68
	c1.59,0.31,2.54,1.86,3.98,2.55c10.12,6.02,15.17,15.25,17.4,26.6c-2.61,0.29-2.86-1.89-4.12-2.7
	C295.92,147.32,295.68,144.02,293.86,141.68L293.86,141.68z"/>
<path class="st104" d="M276.36,127.6c4.44,10.95,9.82,21.62,10.43,33.77c-2.78-6.61-4.18-13.76-8.1-19.89
	c-2.59-5.7-5.18-11.41-7.77-17.11c-0.73-1.13-1.04-2.43,0.17-3.24c0.97-0.65,1.95,0.28,2.84,0.85
	C276.01,123.31,275.32,125.82,276.36,127.6z"/>
<path class="st105" d="M321.07,97.25c0.77,0.67,1.53,1.33,2.3,2c-2.03,3.05,2.32,3.98,2.13,6.65c-0.62,9.15-0.01,18.42-3.15,27.27
	c-2.59-4.64-0.23-9.42-0.28-14.13c-0.02-1.52,0.93-3.06,0.36-4.83c-0.05-0.59-1.08-0.2-0.35-0.26c0.21-0.02,0.33,0.11,0.33,0.39
	c0.03,1.4,1.3,3.34-1.53,3.51c-0.78-4.1-0.17-8.25-0.38-12.37c-0.09-1.74,0.49-3.66-1.23-5.01C318.43,98.6,319.2,97.62,321.07,97.25
	z"/>
<path class="st106" d="M264.34,119.81c-1.67,6.18-6.69,10.14-10.06,15.19c0.9-2.55,1.55-5.23,2.75-7.63
	c2.76-5.53,5.74-10.93,5.11-17.46c-0.14-1.47,0.48-2.84,2.2-4.3C267,110.53,263.82,115.24,264.34,119.81z"/>
<path class="st107" d="M248.18,185.24c-3.8-0.18-2.28,1.73-1.34,3.41c-2.42,1.6-4.01-0.4-5.7-1.46c-3.79-2.37-6.96-5.54-10.43-8.33
	c-2.28-2.33-5.03-4.39-4.99-8.15c0.72-1.07,1.5-1.79,2.61-0.4C233.7,176.94,241.45,180.41,248.18,185.24z"/>
<path class="st108" d="M321.26,117.68c1.47-0.95,0.35-3.01,1.68-4.31c0.91,6.84-0.14,13.31-0.59,19.81
	c-1.08,4.87-1.97,9.8-4.35,14.28c-1.04-2.61,2.4-5.24-0.04-7.85c0.8-5.71,1.61-11.43,2.41-17.14
	C321.03,120.93,319.65,119.03,321.26,117.68z"/>
<path class="st109" d="M228.33,170.31c-0.93-0.2-1.64,0.15-2.17,0.91c-5.13-0.74-6.33-4.37-6.45-8.79c0.08-2.9-3.49-5.29-1.18-8.49
	C221.41,159.64,226.02,164.29,228.33,170.31z"/>
<path class="st110" d="M276.36,127.6c-1.06-1.6-1.89-3.43-3.22-4.76c-2.85-2.87-1.79,0.54-2.23,1.52c-1.42-1.02-1.72-2.41-0.78-3.77
	c0.7-1.01,1.99-0.8,3.02-0.4c4.05,1.58,9.33,0.37,11.97,5.19c-2.22,1.1-4.58-4.8-6.73,0.12C277.02,125.53,276.5,126.38,276.36,127.6
	z"/>
<path class="st56" d="M321.26,117.68c-0.29,1.6-0.59,3.2-0.88,4.79c-0.46-7.34,0.66-14.74-1.11-22c2.39,0.46,1.69,2.36,1.73,3.85
	C321.13,108.77,321.18,113.23,321.26,117.68z"/>
<path class="st102" d="M293.85,141.68c2.3,2.06,3.49,4.79,4.55,7.59C294.74,148.03,294.54,144.71,293.85,141.68z"/>
<path class="st111" d="M151,196.35c4.26-4.98,8.5-9.99,12.81-14.93c1.43-1.64,3.49-1.4,5.42-1.4c3.96,1.11,7.68,2.54,9.31,6.84
	c-6.11,3.34-10.52,8.47-14.73,13.84c-1.43,1.82-3.46,2.55-5.8,2.33c-1.98-0.22-3.71-1.14-5.45-2.01
	C150.51,200,149.61,198.54,151,196.35z"/>
<path class="st7" d="M177.89,186.45c-2.89-2.14-5.78-4.28-8.66-6.42c0.93-0.46,1.27-1.27,1.33-2.25c1.7-0.95,3.23-0.14,4.57,0.7
	c9.92,6.25,20.15,12.13,27.2,21.91c1.19,1.65,3.24,3.15,1.91,5.7c-0.21,0.29-0.63,0.61-0.59,0.87c1.02,7.54-2.82,12.89-7.92,17.68
	c-0.42-0.32-0.71-0.72-0.87-1.22c-0.26-1.35,0.31-2.45,0.99-3.54c4.71-7.56,4.71-7.57-0.89-15.11c-1.92-2.82-3.92-5.58-6.85-7.49
	C185.06,193.34,180.26,191.03,177.89,186.45z"/>
<path class="st112" d="M161.93,281.11c-3.2-3.06-4.89-6.17-0.58-9.72c0.66-0.54,0.96-1.51,1.42-2.28c4.85-8.11,4.85-8.11,12-1.9
	c-1.76,4.96-2.24,9.98-0.83,15.13c0.65,2.38-0.21,3.88-2.85,4.01C167.39,285.73,165.18,282.5,161.93,281.11z"/>
<path class="st113" d="M180.5,231.94c-9.13-9.9-18.12-19.97-30.61-25.91c-1.83-0.91-2.15-2.52-1.31-4.07
	c0.84-1.56,2.57-1.11,3.9-0.66c5.67,1.93,10.8,4.8,15.2,8.96c4.71,4.45,8.93,9.35,13.14,14.25c2.13,2.53,5.13,4.42,5.85,7.98
	l-0.05-0.07c1.92,2.08,5.49,3.69,2.14,7.31l-0.35-0.03C185.11,237.79,183.57,234.09,180.5,231.94z"/>
<path class="st114" d="M204.24,206.09c-4.91-9.15-12.87-15.28-21.19-20.95c-3.98-2.72-8.31-4.92-12.49-7.36
	c-0.01-4.96,1.16-5.64,5.31-3.48c11.14,5.79,19.17,15.06,27.38,24.15c1.18,2,2.38,3.99,3.54,6c0.9,1.57,0.83,2.74-1.34,2.92
	C205.04,206.94,204.64,206.52,204.24,206.09z"/>
<path class="st115" d="M180.33,225.85c-6.78-6.69-12.35-14.67-20.72-19.66c-2.46-1.46-5.16-2.52-7.8-3.66
	c-0.94-0.41-2.17-0.92-2.96,0.21c-0.99,1.42,0.55,2.23,1.05,3.29c-1.67,0.78-2.23,0.08-2.29-1.59c-0.13-3.25,1.19-5.85,3.4-8.1
	c0.15,5.47,5.53,3.48,8.02,5.62c7.31,0.29,11.33,6.12,16.63,9.81c2.68,3.6,7.44,5.54,8.38,10.53
	C183.17,223.89,182,225.13,180.33,225.85z"/>
<path class="st116" d="M189.8,248.8c2.06,0.98,4.1,2.74,6.17,2.76c3.04,0.02,2.74,1.25,2.03,3.1c-1.6,4.19-2.66,8.53-3.34,13.24
	c-2.02-0.78-3.74-1.44-5.47-2.1c-4.57-2.72-9.39-5.03-13.51-8.45c0.14-5.16,2.13-9.53,5.6-13.3c1.31-0.34,1.86,0.5,2.29,1.5
	C185.06,247.75,187.21,248.69,189.8,248.8z"/>
<path class="st117" d="M170.2,285.64c1.85-0.33,3.7-0.26,2.14-3.27c-1.9-3.68-0.49-7.83-0.64-11.77c-0.09-2.24,2.22-2.1,3.06-3.39
	c5.32,3.05,10.11,7.05,16.12,8.85c-1.31,5.56-2.75,11.1-3.89,16.7c-0.48,2.34-1.8,1.65-3.16,1.45l0.01,0.02
	c-3.16-0.24-5.36-2.33-7.8-3.98c-1.88-1.16-3.77-2.32-5.65-3.49c-0.27-0.21-0.38-0.45-0.35-0.71
	C170.07,285.78,170.13,285.64,170.2,285.64z"/>
<path class="st100" d="M181.47,244.13c-1.92,4.41-3.13,9.13-5.78,13.22c-6.87-4.14-7.11-4.77-2.9-11.54
	c1.47-2.37,1.6-5.56,4.34-7.15C180.19,239.19,181.71,240.96,181.47,244.13z"/>
<path class="st118" d="M209.51,175.66c0.35,1.45,0.71,2.9,1.06,4.34c1.05,0.46,0.81,1.41,0.85,2.24c0.09,2.37-0.19,4.82-2.33,6.12
	c-2.58,1.56-4.09-0.92-5.83-2.22c-2.76-3.22-1.2-11.84,2.52-13.33C208.36,171.78,208.22,174.75,209.51,175.66z"/>
<path class="st119" d="M210.91,219.11c1.13-0.06,2.26-0.12,3.39-0.17c2.6-0.75,4.91,0.19,7.23,1.2c0.53,0.27,1,0.6,1.44,1
	c2.83,4.32,2.6,5.33-1.29,5.72c-3.89,0.77-6.94-2.65-10.77-2.19C207.79,222.82,208.02,220.97,210.91,219.11z"/>
<path class="st120" d="M203.25,186.15c5.91,2.68,6.11,2.52,7.32-6.14c3.01,1.62,2.54,4.94,3.36,7.5c0.71,2.23,1.47,5.36-1.04,6.91
	c-2.48,1.54-3.24-2.13-5.17-2.73C206.82,189.37,203.87,188.7,203.25,186.15z"/>
<path class="st2" d="M146.66,279.17c-1.12-1.47-2.23-2.93-3.35-4.4c6.87,0.14,10.83,3.1,13.08,9.8c-2.39-1.71-4.41-4.25-8.03-2.4
	c-1.15,0.58-2.25-0.73-2.86-1.92C145.96,279.97,147.34,280.68,146.66,279.17z"/>
<path class="st7" d="M180.33,225.85c0.18-1.93,1.03-3.24,3.13-3.39c0.72-0.05,1.36,0.17,1.96,0.55c1.13,0.81,2.31,1.56,3.24,2.62
	c0.63,1.04,1.27,2.09,0.47,3.33c-1.57,0.66-2.15,2.01-2.45,3.54C184.29,230.53,181.91,228.57,180.33,225.85z"/>
<path class="st7" d="M188.76,239.74c1.9-3.2-1.2-4.94-2.13-7.31c0.68,0.2,1.35,0.42,2.04,0.6c1.98,0.52,4.6,0.28,4.67,3.29
	C193.4,239.39,190.51,238.89,188.76,239.74z"/>
<path class="st115" d="M189.12,228.96c-0.37-1.07-0.74-2.14-1.11-3.21c3.11,1.12,4.64-2.9,7.58-2.31c0.05,0.4,0.09,0.8,0.14,1.2
	C193.99,226.78,193.83,231.36,189.12,228.96z"/>
<path class="st7" d="M180.5,231.94c3.3,1.91,5.69,4.75,7.9,7.77C183.34,239.59,183.12,234.54,180.5,231.94z"/>
<path class="st7" d="M181.47,244.13c-0.89-2.26-2.18-4.21-4.35-5.46c3.59-0.42,5.7,1.84,6.44,6.89
	C182.86,245.08,182.17,244.6,181.47,244.13z"/>
<path class="st7" d="M176.04,290.25c3.03,0.49,5.36,2.34,7.8,3.98C180.04,295.27,177.78,293.28,176.04,290.25z"/>
<path class="st7" d="M170.2,285.64c0.06,0.38,0.13,0.75,0.19,1.13c-3.65-0.64-6-3.23-8.46-5.65
	C165.58,280.99,167.04,284.86,170.2,285.64z"/>
<path class="st0" d="M156.64,286.86c-1.19,2.02-1.66,4.46-3.53,6.09C151.99,289.59,152.64,287.25,156.64,286.86z"/>
<path class="st2" d="M155.31,324.73c1.18-1.95,2.55-2.29,4.16-0.49c1.24,1.38,1.4,2.46-0.82,2.86
	C157.43,326.46,156.21,325.82,155.31,324.73z"/>
<path class="st0" d="M155.31,324.73c1.5,0.24,2.66,0.96,3.35,2.36c-0.1,0.41-0.2,0.82-0.31,1.23c-2.11-3.44-5.55-1.98-8.51-2.31
	C151.34,324.2,153.5,325.21,155.31,324.73z"/>
<path class="st121" d="M35.32,247.34c2.43,1.19,4.9,2.32,7.28,3.6c2.91,1.57,3.5,4.01,2.04,6.87c-1.46,2.87-3.37,2.33-5.77,0.89
	c-1.64-0.98-3.79-1.12-5.71-1.63c-4.66-1.74-4.63-5.69-4.57-9.67C30.78,241.78,33.07,246.69,35.32,247.34z"/>
<path class="st122" d="M35.32,247.34c-1.88,1.19-4.03-4.26-5.77,0.24c-1.24,0.96-2.53,0.43-3.3-0.43c-2.05-2.27-3.75-1.29-5.52,0.24
	c-0.51-2.26-1.08-4.51-1.5-6.78c-0.11-0.61,0.03-1.61,0.44-1.91c3.17-2.3,3.19-2.26,2.35-5.59c-0.26-1.04-0.48-2.08-0.71-3.13
	c3.74,0.96,1.25-2.21,2.09-3.16c0.51,0.71,1.38,1.38,1.47,2.14C25.8,236.56,29.26,242.68,35.32,247.34z"/>
<path class="st123" d="M20.73,247.39c0.74-1.53-0.51-4.04,1.54-4.7c1.61-0.52,2.58,1.56,3.83,2.49c1.13,0.84,2.31,1.61,3.46,2.4
	c0.55,3.42,1.06,6.85,3.62,9.5c-5.76,1.97-8.08,1.09-10.39-4.09C21.98,251.18,21.41,249.26,20.73,247.39z"/>
<path class="st124" d="M231.97,287.03c0.08-0.29,0.27-0.42,0.58-0.39c1.92-2.26,0.1-4.13-0.85-5.86c-2.59-4.72-5.23-9.39-8.77-13.57
	c-2.28-2.68-5.65-5.5-3.34-9.94c2.53-1.31,3.62,0.8,4.88,2.18c3.86,4.21,8.42,6.61,14.29,6.12c6.22-0.52,12.58,0.57,18.44-3.07
	c2.74-1.7,4.73-0.31,4.5,3.42c-0.29,4.96-0.03,9.93-0.11,14.28c1.04-4.62-1.77-10.04,1.38-15.11c-0.04,18.23-0.06,36.45-0.17,54.68
	c-0.01,1.55-0.64,3.1-1,4.64c-0.01,0.05-0.28,0.11-0.39,0.06c-0.16-0.07-0.27-0.23-0.4-0.36c-1.81-3.66-5.02-6.11-7.98-8.67
	c-7.43-6.41-13.61-13.84-18.83-22.08C233.02,291.51,231.09,289.69,231.97,287.03z"/>
<path class="st125" d="M278.54,261.69c9.74,3.34,17.55-1.3,25.14-6.33c2.84-1.88,5.23-4.42,7.86-6.64c0.96-0.81,2.02-1.94,3.32-1.06
	c1.03,0.69,0.54,1.99,0.23,3.03c-2.22,7.65-4.28,15.34-6.76,22.91c-1.67,5.12-6.47,8.01-10.32,12.05c6.18,0.44,6.18,0.44,3.37,7.6
	c0,0-0.02,0.04-0.02,0.04c-1.49,2.52-1.89,5.91-5.44,6.79c-2.51-3.21,1.14-5.13,1.7-7.99c-2.88,0.43-3.97,4.31-7.19,3.57
	c-0.26-0.28-0.36-0.58-0.32-0.9c0.04-0.32,0.1-0.49,0.17-0.49c2.15-2.63,7.13-5.01-0.45-7.6c-3.33-1.14-0.26-3.78,1.01-4.97
	c3.14-2.96,6.66-5.5,9.98-8.27c0.97-0.81,1.82-1.76,2.63-2.73c1.62-1.94,4.18-4.52,2.71-6.56c-1.95-2.71-4.63,0.38-6.47,1.47
	c-8.84,5.25-17.41,5.26-26.01-0.32c-1.04-0.68-2.12-1.42-2.88-2.37c-0.47-0.59-0.73-1.83-0.42-2.45c0.54-1.1,1.56-0.24,2.34,0.03
	C274.64,261.16,276.49,261.9,278.54,261.69z"/>
<path class="st126" d="M290.32,295.37c2.18-0.69,3.27-2.71,4.92-4.05c1.29-1.04,2.52-3.41,4.37-1.63c1.61,1.55-0.16,3.38-1.15,4.72
	c-1.29,1.74-2.9,3.23-2.37,5.68c0.93,1.84-0.4,2.87-1.42,4.02c-6.3,8.45-14.36,14.77-23.67,19.56c-1.49,0.77-3.57,2.28-4.75,0.31
	c-0.96-1.62,1.28-2.79,2.45-3.71c4.8-3.79,8.74-8.6,13.99-11.85c1.65-1.99,1.35-4.4,1.25-6.67
	C283.74,297.19,285.84,295.15,290.32,295.37z"/>
<path class="st127" d="M219.65,258.42c0.85,4.06,3.52,7,6.09,10.01c3.79,4.43,6.45,9.56,8.69,14.87c0.41,0.97,2.74,4.53-1.88,3.34
	c-1.14-3.15-3.1-5.78-5.72-7.74c-5.74-4.32-8.47-10.22-9.61-17.06c-0.97-5.85-2.14-11.65-3.75-17.63
	c7.03,8.24,15.8,13.33,25.81,16.47c1.08,0.71,3.16,0.54,2.61,2.72c-0.47,1.83-1.89,2.46-3.68,2.62c-6.19,0.56-9.73-4.1-14.11-7.1
	c-1.02-0.7-1.38-2.22-2.73-2.54C219.57,255.95,219.01,256.72,219.65,258.42z"/>
<path class="st128" d="M219.65,258.42c-1.52-1.07-1.15-2.88-2.46-4.96c6.54,1.46,9.55,6.7,14.31,9.21c2.25,1.19,4.2,2.76,6.93,2.21
	c3.6-0.73,2.97-2.32,0.85-4.21c6.22,0.34,12.05-1.07,17.85-3.3c6.39-2.46,6.69-2.08,6.21,4.51c-0.08,1.07-0.25,2.13-0.38,3.2
	c-2.05,5.56,0.05,11.43-1.9,17.06c0-5.14,0.03-10.28-0.02-15.42c-0.01-1.21,0.38-2.66-0.98-3.43c-1.4-0.8-2.29,0.36-3.32,1.06
	c-9.05,6.2-27.47,3.53-34.35-4.94C221.71,258.56,221.28,256.74,219.65,258.42z"/>
<path class="st129" d="M236.87,353.32c-6.39-10.19-11.35-21-14.32-32.68c-0.35-1.39-1.24-3.13,0.09-4.05
	c1.45-1.01,3.17-0.1,4.42,1.07c1.43,1.34,3.08,2.56,3.48,4.68c1.44,6.5,4.63,12.1,8.59,17.4c1.73,2.31,4.61,4.24,3.8,7.85
	c0.45,1.09-2.42-0.58-1,1.13c1.71,2.05,0.7,3.63-0.64,5.15C239.63,355.75,238.18,354.79,236.87,353.32z"/>
<path class="st130" d="M278.42,228.92c10.28,0.24,19.69-3.62,29.33-6.32c3.18-0.89,6.33-1.31,9.59-1.19
	c1.23,0.05,2.81-0.09,2.94,1.59c0.12,1.46-1.22,2.16-2.44,2.51c-2.92,0.84-5.88,1.54-8.82,2.29c-5.29,1.07-10.7,1.78-15.86,3.29
	c-9.07,2.67-18.23,4.43-27.69,4.52c-1.35-0.23-2.71-0.46-4.07-0.69c-0.16-0.52-0.02-0.93,0.44-1.23c1.62-1.38,5.23,0.6,5.42-3.21
	c0.51-1.03,1.43-1.45,2.47-1.71c0.78-0.19,1.58-0.23,2.38-0.23C274.21,228.66,276.37,227.85,278.42,228.92z"/>
<path class="st131" d="M231.97,287.03c6.88,12.15,15.91,22.49,26.55,31.47c1.72,1.45,2.98,3.16,2.5,5.62
	c-17.02-8.67-27.07-23.78-36.8-39.79C227.4,284.27,229.5,286.2,231.97,287.03z"/>
<path class="st132" d="M280.63,240.77c6.19-1.12,11.9-4.23,18.32-4.38c1.43-0.03,3.21-0.61,4.09,0.64c1.12,1.58-0.4,3.08-1.19,4.4
	c-5.21,8.69-12.58,10.64-21.66,5.89c-1.59-0.83-3.23-1.56-4.85-2.33C275.96,242.14,278.18,241.3,280.63,240.77z"/>
<path class="st133" d="M253.09,243.61c-10.28,9.61-20.19,8.29-28.43-7.37C230.63,235.74,246.28,239.79,253.09,243.61z"/>
<path class="st134" d="M242.37,347.86c-1.44-4.83-5.64-7.88-7.92-12.13c-2.22-4.14-5.2-8.17-3.91-13.39
	c9.46,10.23,15.65,22.79,24.04,33.8c1.53,2,4.03,4.01,1.94,7.12c-1.78,0.98-3.18,0.02-4.31-1.11
	C248.09,357.98,244.25,353.59,242.37,347.86z"/>
<path class="st135" d="M221.68,226.86c4.55-1.71,0.9-3.61,0.12-5.44c1.39-1.49,3.11-0.88,4.6-0.48c12.36,3.4,24.78,6.54,37.3,9.3
	c2.54,2.55-1.23,2.82-1.58,4.32c-0.24,0.11-0.49,0.23-0.72,0.35C247.74,234.3,234.66,230.84,221.68,226.86z"/>
<path class="st0" d="M214.22,336.96c-0.02-0.73-0.05-1.47-0.07-2.2c0.67,0.58,1.53,1.04,1.98,1.76
	c6.05,9.83,14.02,18.37,18.47,29.35c1.49,3.67,4.57,7.22,7.16,10.62c3.59,4.71,1.47,8.61-1.19,12.28c-1.17,1.62-2.81,2.82-3.99,4.72
	c-1.78,2.89-4.46-0.18-5.19-1.33c-2.75-4.32-6.76-7.85-8.34-12.91c4.39,3.48,6.79,8.77,11.06,12.74c0.62-1.1,0.86-2.09,1.49-2.57
	c7.98-6.04,4.55-11.69,0.16-18.17C228.19,360.09,221.36,348.42,214.22,336.96z"/>
<path class="st136" d="M282.67,350.98c-4.21,7.78-8.13,15.74-12.72,23.29c-3.21,5.28-7.26,10.13-14.32,10.47
	c7.28-10.87,14.57-21.75,21.85-32.62C279.3,352.13,280.5,349.36,282.67,350.98z"/>
<path class="st137" d="M242.37,347.86c3.03,3.83,6,7.72,9.13,11.47c1.36,1.63,2.62,3.55,5.02,3.93c-0.02,0.18,0.03,0.41-0.07,0.53
	c-1.96,2.66-3.84,7.36-5.93,7.46c-3.1,0.14-4.11-4.83-6.35-7.37c-2.8-3.2-4.9-7.01-7.3-10.56c1.52,0.56,2.61,0.82,4.06-0.82
	c2.53-2.86-1.54-3.81-1.25-5.88C241.04,346.16,241.4,347.65,242.37,347.86z"/>
<path class="st138" d="M282.67,350.98c-1.92-0.48-2.86,3.48-5.19,1.14c4.35-8.19,10.08-15.42,15.72-22.72
	c0.77-1,1.76-1.86,1.74-3.27c0.75-1.06,0.99-2.78,2.94-2.28c2.9,0.69,0.79,2.09,0.31,3c-2.97,5.54-6.05,11.01-9.09,16.51
	C288.21,346.95,284.68,348.32,282.67,350.98z"/>
<path class="st139" d="M290.32,295.37c-4.15,0.73-5.76,3.19-5.37,7.35c0.2,2.15,0.03,4.42-2.26,5.7c0.07-1.63,0.4-3.31,0.15-4.89
	c-0.91-5.91,1.59-8.9,7.46-9.25C290.3,294.64,290.31,295.01,290.32,295.37z"/>
<path class="st0" d="M297.89,323.85c-0.98,0.76-1.96,1.52-2.94,2.28c-1.09-6.08,3.61-7.17,7.64-8.85
	C301.01,319.48,299.45,321.67,297.89,323.85z"/>
<path class="st0" d="M294.66,304.11c0.47-1.34,0.94-2.68,1.42-4.02c2.65-1.57,2.84-5.06,5.29-6.79
	C300.71,297.88,298.1,301.25,294.66,304.11z"/>
<path class="st1" d="M328.68,254.05c0.83,0.49,1.05,1.29,1.09,2.18c-1.18,0.63-2.28,3.34-3.66,0.73
	C325.04,254.95,326.95,254.29,328.68,254.05z"/>
<path class="st140" d="M248.25,190.54c2.8,0.86,5.59,1.73,8.39,2.59c0.98,3.3-3.02,4.39-3.18,7.18c-0.41-0.08-0.83-0.16-1.24-0.24
	c-1.99,0.35-3.41-0.41-4.3-2.21C246.57,195.35,245.65,192.86,248.25,190.54z"/>
<path class="st141" d="M230.95,203.03c8.19,4.75,16.15,9.98,25.67,11.85c1.16,0.74,2.46,0.4,3.71,0.47c5.63,0.3,9,4.32,7.86,9.77
	c-1.14,5.45-5.38,4.26-9.14,3.9c-11.58-1.14-22.63-4.36-33.47-8.46c-0.64-4.31,0.02-8.52,1.18-12.65
	C227.37,205.71,228.01,203.33,230.95,203.03z"/>
<path class="st1" d="M256.85,204.9c5.79,0.01,11.57,0.02,17.36,0.03c1.99,1.44,6.72-0.17,6.09,3.64c-0.57,3.42-5,3.44-7.77,3.26
	c-5.8-0.39-11.59-0.22-17.38-0.24c-3.09-0.01-6.22-1.17-6.35-3.84c-0.17-3.4,3.54-2.51,5.89-2.75
	C255.4,204.92,256.13,204.93,256.85,204.9z"/>
<path class="st142" d="M230.95,203.03c-2.88,3.29-3.31,7.39-3.7,11.46c-0.19,1.95-0.08,3.93-1.3,5.62
	c-1.13,1.48-2.61,0.53-3.95,0.58c-2.18-1.77-6.84,0.6-7.15-4.28c2.19-4.78,5.09-9.12,8.18-13.36
	C225.83,199.19,228.29,199.14,230.95,203.03z"/>
<path class="st143" d="M278.42,228.92c-2,1.45-4.26,1.18-6.51,0.96c-0.37-0.41-0.76-0.93-0.68-1.43c0.98-5.81-2.63-9.6-5.9-13.55
	c4.82,0.65,9.88,0.08,14.21,3.11c1.65,1.15,3.21,2.25,3.39,4.46C283.8,226.27,280.46,227.14,278.42,228.92z"/>
<path class="st144" d="M265.34,214.9c7.98,2.92,8.45,9.08,6.58,14.98c-0.68-0.02-1.36-0.03-2.05-0.05
	c-2.65-0.27-5.28,0.77-7.93,0.16c-1.27-0.29-3.07,0.1-3.04-2.1c0.54-0.02,1.09,0.02,1.62-0.06c2.4-0.37,5.84,1.36,6.44-2.83
	c0.61-4.27-2.39-8.45-6.29-9.01c-1.4-0.2-2.91,0.06-4.04-1.1C259.52,214.89,262.43,214.89,265.34,214.9z"/>
<path class="st1" d="M319.96,220.14c-4,0.02-8,0.05-12,0.07c0.55-3.43,3.22-4.21,5.97-4.22
	C316.68,215.98,319.35,216.73,319.96,220.14z"/>
<path class="st64" d="M327.48,210.43c1.05,4.29,5.59,6.52,6.44,10.93c-1.97,0.54-2.19-1.26-3.01-2.25
	C330.09,216.08,325.23,214.66,327.48,210.43z"/>
<path class="st145" d="M249.07,198.45c1.05,0.54,2.11,1.08,3.16,1.62c-0.37,0.96-0.74,1.92-1.11,2.88c-2.35-0.45-4.4-1.51-6.17-3.11
	c0.69-0.44,1.38-0.89,2.06-1.33C247.67,197.89,248.36,197.78,249.07,198.45z"/>
<path class="st0" d="M330.9,219.1c1,0.75,2.01,1.5,3.01,2.25c0.77,1.48,2.6,2.35,2.48,4.34C332.92,224.87,330.81,222.9,330.9,219.1z
	"/>
<path class="st141" d="M214.84,216.41c0.98,3.66,4.74,2.03,6.82,3.59c0,0.72-0.36,1.05-1.08,0.99c-2.11-0.62-4.46-0.53-6.28-2.04
	C214.48,218.1,214.66,217.25,214.84,216.41z"/>
<path class="st146" d="M343.97,224.54c-3.5-3.78-5.42-8.72-9.23-12.32c-1.95-1.84-1.77-4.55-1.66-7.06
	c6.09-7.41,11.38-15.65,20.64-19.75c3.16-0.32,4.14,2.5,5.55,4.26c2.34,2.9,3.96,6.37,5.66,9.69c1.79,3.5,0.64,6.58-2.48,8.93
	C356.11,213.5,349.61,218.53,343.97,224.54z"/>
<path class="st147" d="M362.46,208.29c5.1-7.68-2.19-12.28-4.62-18.03c-0.79-1.86-2.71-3.25-4.11-4.85c1.09-0.5,2.19-1.01,3.28-1.52
	c0-0.01,0.36,0.35,0.36,0.35c2.27,3.56,4.36,7.29,8.69,8.82c1.91,1.3,3.6,2.83,4.81,4.81C370.49,203.29,366.89,206.13,362.46,208.29
	z"/>
<path class="st148" d="M350.42,183.34c-5.85,5.35-11.71,10.7-17.56,16.05c-1.48-0.81-2.48-1.97-0.9-3.36
	c5.19-4.58,10.47-9.05,15.8-13.47C348.7,181.78,349.81,182.13,350.42,183.34z"/>
<path class="st64" d="M366.06,193.06c-6.32,0.43-7.24-4.46-8.7-8.82C360.69,186.76,363.61,189.68,366.06,193.06z"/>
<path class="st149" d="M341.49,262.59c-0.85,0.48-1.37,1.6-2.6,1.32c-1.56-4.02-3.12-8.04-4.68-12.07c1.06,0.24,2.12,0.48,3.18,0.71
	C340.9,255.03,342.67,258.21,341.49,262.59z"/>
<path class="st150" d="M219.72,162.44c2.02,3.02,3.07,6.76,6.45,8.79c1.85,2.23,3.69,4.47,5.54,6.7c2.07,4.04,5.14,7.31,8.02,10.74
	c1.29,1.53,3.47,2.99,1.59,5.51c-11.55-5.96-17.28-16.94-23.81-27.3c-8.65-13.73-13.69-29-19.28-44.04
	c-2.66-7.15-6.89-13.51-10.26-20.31c0.72-3.24-2.54-4.52-4.13-8.38c7.3,5.32,14.62,5.06,21.93,5.3c3.61,0.12,3.06,2.96,2.02,5.25
	c-4.01,8.85-3.07,18.09-0.96,26.91c1.85,7.74,5.55,15.06,8.63,22.49C216.65,156.96,216.1,160.79,219.72,162.44z"/>
<path class="st151" d="M241.32,194.17c-0.86-4.72-5.58-6.61-7.74-10.46c-1.07-1.92-2.22-3.53-1.88-5.79
	c4.92,3.76,9.19,8.44,15.14,10.73c0.47,0.63,0.93,1.25,1.4,1.88c-0.87,2.76,0.18,5.31,0.82,7.91c-0.69,0.02-1.38,0.04-2.07,0.06
	C245.11,197.06,243.21,195.62,241.32,194.17z"/>
<path class="st152" d="M174.91,212.71c-5.08-3.9-9.93-8.15-15.9-10.74c4.06-0.3,5.5-3.95,7.26-6.5c3.02-4.37,6.35-7.8,11.62-9.01
	c4.64,2.25,7.63,6.37,11.18,9.85c2.53,5.94-1.52,9.51-4.94,13.14C181.72,212.01,179.24,215.19,174.91,212.71z"/>
<path class="st153" d="M174.91,212.71c7.02-0.74,12.75-7.37,14.18-16.41c3.79,1.17,4.65,4.84,6.54,7.63
	c2.95,3.72,2.9,7.16-0.92,10.27c-1.46,1.19-1.91,2.99-2.76,4.55c-1.54,2.82-3.51,5.01-7.15,4.56c-0.44-0.28-0.89-0.56-1.33-0.84
	C180.61,219.21,177.76,215.96,174.91,212.71z"/>
<path class="st154" d="M184.79,223.3c3.27-1.95,6.59-3.82,6.72-8.34c0.02-0.59,0.62-1.5,1.16-1.69c5.13-1.85,4.12-5.55,2.95-9.34
	c7.18,7.2,7.34,9.16,1.46,16.72c-0.64,0.82-1,1.86-1.5,2.79c-2.41,1.15-3.7,5.98-7.58,2.31
	C186.58,225.39,185.19,225.01,184.79,223.3z"/>
<path class="st155" d="M191.1,263.99c-3.27-1.19-5.93-3.24-8.23-5.81c-1.21-1.35-1.65-2.7-0.51-4.35c1.99-2.87,11.27-2.52,12.96,0.6
	c0.2,0.37-0.48,1.22-0.75,1.84C190.95,257.74,193.35,261.91,191.1,263.99z"/>
<path class="st156" d="M191.1,263.99c0.08-3.06-1.75-6.97,3.47-7.72c-1.17,2.06-0.86,4.39-1.21,6.6
	C193.14,264.28,192.73,265.4,191.1,263.99z"/>
<path class="st9" d="M172.83,277.16c0.06-2,0.02-4.2,2-5.3c1.88-1.04,3.41,0.4,4.91,1.41c0.45,0.3,0.95,0.53,1.43,0.78
	c7.04,3.79,8,7.41,4.25,14.6c-1.21,2.33-2.47,2.78-4.69,1.56C178.12,288.79,172.88,280.25,172.83,277.16z"/>
<path class="st157" d="M220.58,220.98c0.36-0.33,0.73-0.66,1.09-0.99c1.43,0.04,2.86,0.07,4.28,0.11
	c10.81,3.33,21.66,6.5,32.95,7.78c3.32,2.55,7.6-0.36,10.97,1.94c-0.82,0.51-1.65,1.02-2.47,1.52c-1.08,0.79-2.17,0.93-3.27,0.04
	c-14.47-1.79-28.2-6.71-42.32-9.96C221.39,221.28,220.99,221.13,220.58,220.98z"/>
<path class="st158" d="M264.12,231.39c1.09-0.01,2.19-0.02,3.28-0.04c1.5,0.66,3.02,1.65,0.5,2.66c-1.73,0.7-3.86,0.41-5.79,0.56
	C260.93,232.34,263.82,232.68,264.12,231.39z"/>
</svg>
