<?xml version="1.0" encoding="utf-8"?>
<!-- Generator: Adobe Illustrator 25.3.1, SVG Export Plug-In . SVG Version: 6.00 Build 0)  -->
<svg version="1.1" id="Camada_1" xmlns="http://www.w3.org/2000/svg" xmlns:xlink="http://www.w3.org/1999/xlink" x="0px" y="0px"
	 viewBox="0 0 1000 700" style="enable-background:new 0 0 1000 700;" xml:space="preserve">
<style type="text/css">
	.st0{fill:#FDFDFD;}
	.st1{fill:#FCFCFC;}
	.st2{fill:#FEFEFE;}
	.st3{fill:#FBFBFB;}
	.st4{fill:#BDBDBD;}
	.st5{fill:#FAFAFA;}
	.st6{fill:#DFDFDF;}
	.st7{fill:#121211;}
	.st8{fill:#050404;}
	.st9{fill:#020202;}
</style>
<g>
	<path d="M995.26,632.9c-21.31-0.1-42.63-0.27-63.94-0.28c-126.36-0.04-252.73-0.05-379.09-0.05c-72.06,0-144.13,0.03-216.19,0.04
		c-7.95,0-7.92-0.03-7.92-8.18c0.02-48.97,0.12-97.94-0.09-146.91c-0.02-5.37,1.21-6.94,6.76-6.93
		c165.46,0.16,330.93,0.14,496.39,0.15c52.13,0,104.25,0.01,156.38,0.01c2.56,0,5.13-0.11,7.69-0.17
		C995.26,524.69,995.26,578.79,995.26,632.9z"/>
	<path d="M55.62,360.83c0.61-25.01-3.03-47.14-2.36-69.45c0.13-4.26,0.87-5.76,5.41-5.94c31.55-1.21,63.08-2.57,94.64-3.52
		c44.37-1.33,88.72-3.45,133.08-5.18c8.09-0.32,16.19-0.29,24.27-0.59c29.96-1.12,59.91-2.39,89.87-3.47
		c26.82-0.96,53.69-1.16,80.47-2.77c29.35-1.77,58.74-2.04,88.1-3.41c28.96-1.34,58-1.89,86.98-3.08c21.51-0.89,43.05-0.44,64.5-1.9
		c33.87-2.3,67.8-2.26,101.68-3.83c39.02-1.81,78.05-3.21,117.09-4.26c5.91-0.16,11.82-0.69,17.71-1.3
		c3.15-0.33,3.95,0.75,4.05,3.84c1.29,39.24,2.69,78.47,4.15,117.7c0.45,12.03,1.09,24.06,1.86,36.07c0.24,3.79-0.81,5-4.82,5.05
		c-45.79,0.54-91.53,2.94-137.28,4.41c-36.46,1.18-72.94,2.46-109.4,3.98c-35.09,1.46-70.21,2.43-105.29,3.89
		c-39.24,1.62-78.5,2.6-117.72,4.52c-10.65,0.52-21.29,0.79-31.94,1.13c-43.97,1.43-87.95,2.79-131.9,4.74
		c-12.42,0.55-24.84,0.87-37.26,1.33c-48.5,1.77-96.99,4.4-145.5,5.41c-26.83,0.56-53.57,3.1-80.43,2.87
		c-5.34-0.05-7.12-1.34-7.27-6.7C57.55,412.94,56.49,385.53,55.62,360.83z"/>
	<path d="M6.43,67.13c33.75,0.08,67.5,0.24,101.24,0.24c196.03,0.03,392.06,0.03,588.09,0.03c61.59,0,123.18-0.01,184.78-0.03
		c1.77,0,3.54-0.18,5.3-0.27c1.77,1.82,1.07,4.12,1.07,6.2c0.04,49.55-0.05,99.09,0.13,148.64c0.02,4.89-1.28,6.16-6.19,6.16
		c-217.12-0.11-434.25-0.06-651.37-0.05c-72.84,0-145.67-0.09-218.51,0.07c-5.1,0.01-6.1-1.53-6.09-6.33
		c0.15-48.95,0.03-97.91,0.07-146.86C4.95,72.3,3.91,69.33,6.43,67.13z"/>
	<path class="st0" d="M716.21,550.05c0-8.67,0.15-17.35-0.06-26.02c-0.09-3.84,1.21-5.43,5.07-4.9c1.35,0.19,2.79,0.22,4.13-0.01
		c4.42-0.75,5.29,1.41,5.07,5.3c-0.28,4.91,0.08,9.86-0.12,14.78c-0.11,2.82,0.92,3.73,3.68,3.9c7.61,0.47,11-1.53,13.89-8.77
		c1.43-3.59,2.84-7.2,4.18-10.83c0.63-1.72,0.11-4.25,3.02-4.24c4.13,0,8.28-0.11,12.36,0.32c1.15,0.12,0.45,1.96-0.01,3.03
		c-3.79,8.87-5.85,18.53-11.77,26.44c-1.58,2.11-0.3,3.74,0.61,5.4c4.13,7.6,8.18,15.25,12.57,22.69c1.81,3.08,1.35,3.38-2.09,4.12
		c-11.15,2.42-15.75-4.1-19.21-12.83c-0.92-2.31-2.68-4.34-3.35-6.7c-1.85-6.57-6.93-5.09-11.47-4.91c-2.54,0.1-2.37,2.11-2.36,3.93
		c0.02,5.32-0.26,10.66,0.09,15.96c0.26,3.85-1.24,4.96-4.7,4.42c-0.19-0.03-0.39,0-0.59,0c-10.81-0.12-8.78,0.88-8.91-8.61
		C716.12,565.03,716.21,557.54,716.21,550.05z"/>
	<path class="st0" d="M594.18,580.52c7.76-19.54,15.55-38.8,23.03-58.19c1.96-5.07,5.82-2.67,8.94-3.12
		c4.23-0.6,6.59,0.31,8.42,5.42c6.36,17.7,13.82,35.02,20.96,52.44c1.32,3.21,0.49,4.32-2.85,4.08c-1.76-0.13-3.57-0.2-5.32,0.02
		c-4.56,0.57-7.39-0.63-7.8-5.85c-0.24-3.06-2.23-4.62-5.71-4.45c-5.7,0.28-11.43,0.1-17.14,0.06c-1.87-0.02-3.48,0.17-4.45,2.11
		c-1.35,2.68-0.9,7.01-4.26,7.74C603.69,581.71,599.06,581.55,594.18,580.52z"/>
	<path class="st1" d="M564.43,519.17c7.3,0,14.63,0.34,21.9-0.11c5.49-0.34,4.97,2.94,4.83,6.34c-0.14,3.53,1.29,8.07-5.07,7.58
		c-3.14-0.24-6.33,0.19-9.47-0.1c-4.02-0.37-5.49,0.88-5.39,5.17c0.28,12.63-0.07,25.27,0.2,37.9c0.09,4.12-0.99,5.87-5.2,5.22
		c-1.16-0.18-2.39-0.17-3.54,0c-4.06,0.62-5.41-0.82-5.31-5.09c0.3-12.63-0.06-25.27,0.2-37.9c0.09-4.21-1.27-5.69-5.37-5.29
		c-2.74,0.27-5.54,0.22-8.28-0.01c-1.99-0.17-4.95,1.3-5.78-1.3c-1.2-3.74-0.93-7.84-0.03-11.66c0.31-1.31,2.47-0.71,3.8-0.72
		C549.43,519.14,556.93,519.17,564.43,519.17z"/>
	<path class="st0" d="M665.6,550.18c0-8.67,0.13-17.33-0.06-26c-0.08-3.54,0.51-5.28,4.73-5.11c11.57,0.45,9.36-1.08,9.49,9.26
		c0.14,11.62,0.14,23.24-0.03,34.86c-0.05,3.51,0.9,4.94,4.63,4.76c5.9-0.28,11.82,0.11,17.72-0.14c3.45-0.14,4.61,1.15,4.32,4.43
		c-0.18,1.95-0.15,3.94,0,5.9c0.17,2.3-0.73,3.05-3.03,3.04c-11.42-0.09-22.85-0.13-34.27,0.02c-2.98,0.04-3.59-1.16-3.55-3.83
		C665.67,568.3,665.6,559.24,665.6,550.18z"/>
	<path class="st2" d="M274.99,334.43c1.52-3.04,12.45-5.77,14.83-3.65c1.28,1.15,0.49,2.58,0.13,3.82
		c-5.14,18.16-10.35,36.31-15.46,54.48c-0.68,2.43-1.83,3.46-4.47,3.67c-10.5,0.84-10.88,0.66-14.59-9.3
		c-3.05-8.2-6.17-16.36-9.38-24.5c-0.39-0.99-1.51-1.69-2.72-2.98c-3.74,11.91-7.51,23.29-10.79,34.8
		c-0.81,2.83-1.76,3.78-4.61,3.92c-10.53,0.52-10.64,0.66-14.97-11.26c-5.31-14.63-10.33-29.37-15.65-44
		c-1.35-3.71-1.58-5.55,3.41-5.86c9-0.57,10.72,0.62,13.74,10.48c2.12,6.89,4.76,13.63,7.29,20.39c0.43,1.14,0.32,3.22,2.19,3.01
		c1.73-0.19,2-1.89,2.46-3.47c2.71-9.24,5.74-18.38,8.42-27.63c2-6.9,7.61-3.71,11.77-4.49c4.06-0.75,4.62,2.66,5.63,5.29
		c3.58,9.25,7.08,18.54,10.66,27.79c0.48,1.23,1.16,2.44,2.87,2.99c2.32-8.46,4.61-16.86,6.91-25.25
		C274.27,340.16,273.66,337.02,274.99,334.43z"/>
	<path class="st0" d="M599.58,368.82c2.31,0.05,4.08-1.33,5.89-2.43c3.22-1.96,6.87-4.81,5.98-8.45c-0.76-3.11-5.1-0.8-7.82-1.18
		c-1.54-0.22-3.15,0.07-4.73,0.11c-5.82,0.16-8.42-3.38-6.71-8.89c0.67-2.17,2.3-1.81,3.78-1.88c8.87-0.41,17.74-0.68,26.61-1.17
		c3.68-0.2,5.35,0.83,5.18,4.93c-0.92,21.93-18.53,36.38-41.13,31.45c-23.71-5.17-30.07-32.94-17.6-52.01
		c5.6-8.57,24.39-13.95,34.62-10.3c11.25,4.02,17.21,7.19,21.55,19.14c-6.68-0.21-12.95,2.72-19.26-3.37
		c-5.31-5.12-12.9-4.83-19.78-1.23c-7.22,3.77-9.38,10.16-9.08,17.71c0.34,8.71,4.59,14.67,12.96,17.51
		C593.21,370.45,596.39,370.34,599.58,368.82z"/>
	<path class="st0" d="M483.62,348.01c-0.31,11.07,0.06,20.83,0.93,30.56c0.34,3.8,0.54,7.03-4.81,7.4c-8.2,0.57-9.23,0.5-9.51-6.19
		c-0.75-17.52-0.98-35.06-1.4-52.6c-0.03-1.37-0.12-3.29,1.63-3.24c3.69,0.1,7.75-2.31,11.02,1.34c5.02,5.61,9.49,11.65,13.92,17.73
		c3.79,5.2,8.19,9.95,12.89,15.59c1.19-3.3,0.65-5.75,0.51-8.13c-0.36-6.3-0.94-12.58-1.18-18.88c-0.33-8.79,3.6-11.64,12.2-9.38
		c2.02,0.53,1.72,1.77,1.77,3.06c0.72,18.12,2.27,36.2,2.06,54.35c-0.02,1.63,0.7,4.28-1.78,4.26c-4.2-0.02-8.81,2.28-12.4-2.53
		C501.37,370.51,492.9,359.93,483.62,348.01z"/>
	<path class="st0" d="M379.1,357.29c0-8.86-0.02-17.72,0.02-26.58c0.01-1.86-0.54-4.37,2.58-4.23c11.91,0.53,23.93-2.31,35.74,1.61
		c13.95,4.63,22.39,20.02,19.33,34.43c-1.66,7.83-4.63,13.2-8.59,16.95c-7.14,6.76-15.9,7.82-24.36,8.79
		c-6.46,0.74-9.68,1.11-12.98-0.31C378.25,382.52,379.05,358.39,379.1,357.29z"/>
	<path class="st0" d="M692.01,346.76c0,8.68-0.2,17.36,0.09,26.02c0.13,3.92-1.17,5.39-4.98,5.01c-1.36-0.14-2.78-0.07-4.13,0.15
		c-3.75,0.6-5.38-0.66-5.24-4.69c0.17-4.72-0.49-9.47-0.3-14.19c0.21-5.18-2.11-6.66-6.84-5.87c-2.33,0.39-4.71,0.45-7.07,0.62
		c-10.03,0.74-10.03,0.73-9.83,11.11c0.02,1.18,0.05,2.37,0.07,3.55c0.19,10.82,0.19,10.72-10.69,10.59
		c-2.67-0.03-3.33-0.96-3.41-3.42c-0.6-17.93-1.23-35.86-2.05-53.79c-0.19-4.04,1.45-5.03,5.15-5.04c10.99-0.03,8.85-1.02,9.06,8.35
		c0.34,15.39,0.26,15.4,15.63,15.04c8.89-0.2,8.89-0.2,8.68-9.01c-0.08-3.15,0.14-6.35-0.28-9.45c-0.59-4.31,0.65-5.84,5.27-5.84
		c8.67,0,8.6-0.31,8.94,8.43c0.29,7.49,0.78,14.96,1.19,22.45C691.51,346.76,691.76,346.76,692.01,346.76z"/>
	<path class="st0" d="M728.31,313.94c6.91,0,13.83,0.32,20.71-0.1c5.17-0.31,4.58,2.96,4.71,6.06c0.14,3.24,1.35,7.14-4.18,7.02
		c-0.39-0.01-0.79,0.04-1.18,0.08c-4.5,0.44-10.54-0.73-13.1,1.73c-3.01,2.89-0.67,8.97-0.56,13.64c0.22,9.47,0.53,18.94,1.27,28.38
		c0.38,4.86-1.42,6.43-5.94,5.87c-1.16-0.15-2.38-0.11-3.54,0.06c-3.57,0.53-4.84-0.88-4.92-4.53c-0.26-13.02-0.97-26.03-1.16-39.04
		c-0.05-3.73-0.82-5.45-4.85-4.88c-2.33,0.33-4.73,0.16-7.1,0.15c-9.36-0.06-7.86,2.04-8.39-8.42c-0.21-4.14,1.74-5.14,5.14-5.15
		c7.69-0.01,15.39,0,23.08,0C728.31,314.51,728.31,314.22,728.31,313.94z"/>
	<path class="st0" d="M350.39,390.39c-4.74,0-9.49-0.29-14.2,0.09c-4.16,0.34-5.73-0.53-5.82-5.23
		c-0.32-16.96-1.08-33.92-1.96-50.86c-0.23-4.53,0.85-6.24,5.74-6.07c8.36,0.28,8.2-0.04,8.53,8.35
		c0.48,12.21,1.33,24.41,1.81,36.62c0.11,2.86,1.08,3.73,3.86,3.6c6.11-0.29,12.24-0.14,18.34-0.5c3.16-0.19,4.56,0.37,4.54,3.98
		c-0.02,4.91,0.42,7.36-0.67,8.48c-1.17,1.19-2.92,1.2-4.09,1.21C361.83,390.11,356.62,390.24,350.39,390.39z"/>
	<path class="st3" d="M552.39,353.29c0,7.88-0.43,15.8,0.16,23.64c0.38,5.02-1.35,6.42-5.85,6.02c-1.56-0.14-3.15,0.03-4.73,0.11
		c-2.69,0.13-3.94-1-3.97-3.81c-0.18-17.95-1.06-35.88-2.09-53.8c-0.31-5.41,4.08-4.71,7.49-4.86c3.23-0.14,6.86-1.18,6.98,4.32
		c0.21,9.46,0.83,18.92,1.28,28.37C551.91,353.28,552.15,353.29,552.39,353.29z"/>
	<path class="st1" d="M315.46,361.28c0,8.27-0.33,16.55,0.11,24.8c0.32,5.89-3.27,5.68-7.16,5.86c-3.85,0.17-7.45,0.84-7.45-5.19
		c0-17.14-0.59-34.28-2.06-51.36c-0.67-7.79,5.06-5.05,8.62-5.9c1.99-0.48,3.41-0.35,4.37,0.37c1.64,1.22,1.64,3.84,1.64,4.85
		C313.54,339.38,314.26,348.45,315.46,361.28z"/>
	<path class="st4" d="M599.58,368.82c-3.2,3.24-6.38,3.26-9.54-0.05C593.22,368.78,596.4,368.8,599.58,368.82z"/>
	<path class="st2" d="M618.72,153.62c4.87-8.7,5.88-17.9,9.28-26.25c0.44-1.08,0.65-2.26,1.08-3.35c3.57-9.06,3.57-8.82,13.17-8.68
		c4.23,0.06,4.05,2.18,3.22,4.82c-3.3,10.42-6.76,20.8-10.15,31.19c-2.48,7.59-5.22,15.11-7.28,22.81c-0.81,3.04-2.16,3.8-4.85,3.71
		c-2.36-0.09-4.74-0.14-7.1,0.02c-2.65,0.18-3.68-1.01-4.52-3.48c-3.93-11.58-8.14-23.06-12.77-36.07
		c-3.98,11.13-7.76,20.87-10.92,30.8c-2.54,7.98-8.01,11.21-15.9,8.62c-2.29-0.75-2.69-2.9-3.2-4.51
		c-5.64-17.63-11.01-35.35-16.57-53.01c-1.13-3.57-0.54-5.26,3.56-4.82c1.95,0.21,3.95,0.17,5.91,0.01c3.69-0.3,4.98,1.63,5.91,4.95
		c2.71,9.67,5.8,19.23,8.83,28.81c0.39,1.25,1.33,2.32,2.41,4.15c3.89-11.24,7.96-21.68,11.05-32.4c2.02-7.03,7.03-5.08,11.64-5.54
		c4.89-0.49,5.08,3.33,6.11,6.22C611.32,132.01,614.87,142.47,618.72,153.62z"/>
	<path class="st0" d="M669.53,143.09c0,8.98,0.08,17.97-0.05,26.95c-0.04,2.46,1.39,6.05-0.98,7.17c-3.5,1.65-7.74,0.78-11.64,0.4
		c-1.79-0.17-1.52-2.06-1.52-3.38c-0.03-18.16-0.03-36.33,0.01-54.49c0-1.72-0.12-4.19,2.21-4.15c4.23,0.08,8.9-1.79,12.22,3.13
		c6.04,8.94,12.47,17.61,18.78,26.37c1.37,1.9,2.89,3.7,4.33,5.54c2.23-0.88,1.41-2.71,1.43-4.08c0.08-8.69,0.21-17.38-0.03-26.06
		c-0.1-3.8,1.01-5.53,4.97-5.07c1.75,0.2,3.56,0.15,5.32,0.01c2.68-0.22,4.02,0.69,4.01,3.59c-0.05,18.56-0.02,37.12-0.03,55.67
		c0,1.37,0.14,3.06-1.84,3.06c-5.07,0.02-10.02,1.32-13.79-4.64c-6.63-10.48-14.36-20.26-21.63-30.33
		C670.72,142.88,670.13,142.98,669.53,143.09z"/>
	<path class="st0" d="M480.76,147.24c-1.33-18.94,14.48-32.82,32.64-32.66c18.99,0.17,33.68,13.4,33.41,31.85
		c-0.27,18.53-12.17,31.96-33.21,32.56C496.15,179.48,479.35,165.57,480.76,147.24z"/>
	<path class="st5" d="M251.99,147.27c0,8.48-0.17,16.97,0.08,25.45c0.11,3.7-0.74,5.32-4.8,5.19c-11.99-0.38-9.72,1.39-9.82-9.48
		c-0.15-15.48-0.04-15.48-15.55-15.48c-8.48,0-8.48,0-8.49,8.26c0,2.37,0,4.74,0,7.1c0,9.81-2.01,11.36-11.74,9.57
		c-2.39-0.44-2.79-1.77-2.79-3.69c0-18.15,0-36.31,0-54.46c0-3.18,1.45-4.33,4.74-4.39c9.79-0.2,9.78-0.34,9.79,9.44
		c0,14.86,0,14.86,14.73,14.86c1.38,0,2.78-0.13,4.14,0.02c3.78,0.43,5.42-0.95,5.19-4.95c-0.28-4.72,0.05-9.47-0.09-14.2
		c-0.11-3.56,0.74-5.77,4.95-5.13c1.74,0.26,3.55,0.15,5.32,0.02c3.42-0.24,4.43,1.43,4.39,4.63
		C251.91,129.12,251.99,138.2,251.99,147.27z"/>
	<path class="st0" d="M266.48,146.66c0-9.07,0.09-18.15-0.05-27.22c-0.04-2.99,0.81-4.13,4-4.07c10.84,0.19,21.7,0.23,32.54,0
		c5.58-0.12,3.82,3.76,3.98,6.51c0.16,2.8,1.03,6.11-3.97,5.88c-6.1-0.29-12.23,0.06-18.34-0.12c-2.94-0.09-4.09,0.62-4.17,3.86
		c-0.21,8.78-0.39,8.78,8.19,8.78c3.16,0,6.35,0.32,9.46-0.07c5.06-0.63,6.83,0.9,6.73,6.32c-0.09,4.83-1.58,6.04-6.05,5.69
		c-4.51-0.36-9.08,0.15-13.6-0.15c-3.7-0.25-5.03,1.14-4.67,4.69c0.16,1.56,0.18,3.17-0.01,4.73c-0.4,3.35,0.86,4.49,4.29,4.35
		c6.3-0.26,12.64,0.22,18.92-0.16c5.12-0.31,4.64,2.82,4.5,6.02c-0.12,2.92,1.2,6.4-4.24,6.25c-11.23-0.32-22.48-0.22-33.72-0.02
		c-3.23,0.06-3.94-1.06-3.88-4.04C266.59,164.8,266.48,155.73,266.48,146.66z"/>
	<path class="st5" d="M447.49,115.43c7.3,0,14.6,0.23,21.89-0.08c5.37-0.23,5.04,3.19,4.86,6.59c-0.18,3.21,1.47,7.77-4.64,7.29
		c-0.2-0.02-0.39-0.01-0.59,0c-4.5,0.14-10.59-1.45-13.1,0.85c-3.29,3.01-0.99,9.26-1.09,14.1c-0.2,9.66-0.22,19.33,0.02,28.99
		c0.09,3.61-0.93,4.73-4.59,4.77c-9.93,0.09-9.93,0.27-9.93-9.39c0-11.64-0.1-23.27,0.06-34.91c0.04-3.29-0.92-4.67-4.34-4.46
		c-3.73,0.23-7.5-0.13-11.23,0.1c-3.16,0.2-4-1.1-4.15-4.08c-0.51-9.78-0.62-9.77,9.1-9.77
		C435.65,115.43,441.57,115.43,447.49,115.43z"/>
	<path class="st1" d="M162.63,115.44c7.09,0,14.19,0.13,21.27-0.06c3.36-0.09,4.96,0.66,5.06,4.48c0.26,9.37,0.44,9.36-8.93,9.37
		c-10.58,0-10.58,0-10.58,10.51c0,11.03-0.13,22.07,0.07,33.09c0.07,3.71-0.79,5.24-4.87,5.11c-11.48-0.38-9.59,1.17-9.69-9.77
		c-0.1-11.42-0.13-22.85,0.03-34.27c0.05-3.51-0.94-5.09-4.67-4.72c-2.73,0.28-5.52,0.23-8.26,0c-1.98-0.17-5.05,1.32-5.75-1.2
		c-1.04-3.74-1.03-7.84,0.1-11.65c0.44-1.48,2.44-0.84,3.74-0.85C147.66,115.41,155.14,115.44,162.63,115.44z"/>
	<path class="st3" d="M370.47,139.31c-0.65,6.78,0.42,14.76-1.36,22.88c-1.88,8.62-10.21,14.76-18.81,15.55
		c-2.16,0.2-4.34,0.15-6.51,0.1c-8.34-0.18-6.97,1.57-7.43-7.61c-0.25-4.85,1.11-6.45,6.19-6.3c11.1,0.32,12.9-1.69,13.03-12.9
		c0.11-10.07,0.32-20.15-0.05-30.2c-0.27-7.23,4.65-5.08,8.38-5.39c3.98-0.32,7,0.11,6.65,5.48
		C370.18,126.62,370.47,132.36,370.47,139.31z"/>
	<path class="st6" d="M396.98,160.85c-2.56,0.01-5.12,0.02-7.68,0.01c-6.27-0.04-8.07-2.64-6.41-8.79c0.56-2.07,1.83-2.26,3.48-2.26
		c7.28,0,14.57,0.09,21.85-0.03c4.22-0.07,4.02,2.82,4.12,5.59c0.11,2.92,0.02,5.66-4.14,5.51
		C404.46,160.73,400.72,160.84,396.98,160.85z"/>
	<path class="st7" d="M624.67,538.74c4.48,3.63,4.8,8.78,6.59,13.03c3.17,7.51,2.86,7.64-5.71,7.64c-8.15,0-8.26-0.03-5.87-7.46
		C621.07,547.65,622.87,543.47,624.67,538.74z"/>
	<path class="st8" d="M394.55,356.83c-0.23-4.33-0.47-8.65-0.68-12.98c-0.09-1.77-0.25-3.34,2.07-4.23
		c12.52-4.8,27.58,5.65,26.9,18.78c-0.44,8.57-7.53,15.68-16.18,16.21c-11.71,0.72-11.72,0.72-11.96-10.7
		c-0.05-2.36-0.01-4.72-0.01-7.09C394.64,356.83,394.6,356.83,394.55,356.83z"/>
	<path class="st9" d="M520.25,129.16c9.21,4.06,13.29,12.14,11.27,22.3c-1.65,8.27-9.3,14.21-18.22,14.13
		c-8.1-0.07-16.76-6.42-17.99-13.18c-2.02-11.2,2.04-19.26,11.73-23.27C511.44,127.24,515.84,127.22,520.25,129.16z"/>
	<path class="st1" d="M313.76,366.18"/>
</g>
<g>
</g>
<g>
</g>
<g>
</g>
<g>
</g>
<g>
</g>
<g>
</g>
</svg>
